<?xml version="1.0" encoding="utf-8"?>
<!-- Generator: Adobe Illustrator 24.0.1, SVG Export Plug-In . SVG Version: 6.00 Build 0)  -->
<svg version="1.1" xmlns="http://www.w3.org/2000/svg" xmlns:xlink="http://www.w3.org/1999/xlink" x="0px" y="0px"
     viewBox="0 0 150 90" style="enable-background:new 0 0 150 90;" xml:space="preserve">
<style type="text/css">
    .st0{display:none;}
    .st1{fill:none;stroke:#EC2027;stroke-width:2;stroke-miterlimit:10;}
    .st2{display:none;fill:#FFFFFF;}
    .st3{font-family:'ProximaNova-Extrabld';}
    .st4{font-size:25.7326px;}
</style>
<g id="Layer_2">
    <rect x="-3.57" y="0.93" class="st0" width="156.61" height="94.23"/>
</g>
<g id="Grey_Lines">
    <path class="st1" d="M36.77,31.94c7.02-1.71,11.54-4.73,15.45-7.99"/>
    <path class="st1" d="M64.33,31.94c18.8,1.29,25.12-20.57,39.37-19.06"/>
    <path class="st1" d="M108.19,59.95c-10.54,2.57-15.45,7.85-21.1,12.47"/>
    <path class="st1" d="M80.3,61.16c-13.53-0.01-15.35,16.91-42.56,16.91"/>
</g>
<g id="Color_Lines">
    <path class="st1" d="M105.85,31.94c3.93-2.65,5.43-6.05,16.72-6.05"/>
    <path class="st1" d="M43.87,57.3c-3.93,2.65-5.43,6.05-16.72,6.05"/>
</g>
<g id="Title">
    <text transform="matrix(1 0 0 1 6.2256 54.1895)" class="st2 st3 st4">MWC 2020</text>
</g>
</svg>
