<?xml version="1.0" encoding="UTF-8"?>
<svg width="20px" height="12px" viewBox="0 0 20 12" version="1.1" xmlns="http://www.w3.org/2000/svg" xmlns:xlink="http://www.w3.org/1999/xlink">
    <!-- Generator: Sketch 41.2 (35397) - http://www.bohemiancoding.com/sketch -->
    <title>icon-lastfm</title>
    <desc>Created with Sketch.</desc>
    <defs></defs>
    <g id="Symbols" stroke="none" stroke-width="1" fill="none" fill-rule="evenodd">
        <g id="LS-Profile-Links" transform="translate(-206.000000, -42.000000)" fill="#000">
            <g id="Group-6" transform="translate(1.000000, 33.000000)">
                <path d="M213.574,19.576 C213.097,19.924 212.119,20.6 210.193,20.6 C207.532,20.6 205,18.707 205,15.195 C205,11.547 207.637,9.4 210.354,9.4 C213.401,9.4 214.537,10.508 215.498,13.509 L216.254,15.818 C216.805,17.506 217.967,18.728 220.28,18.728 C221.838,18.728 222.662,18.382 222.662,17.529 C222.662,16.859 222.273,16.373 221.105,16.095 L219.546,15.726 C217.646,15.265 216.89,14.271 216.89,12.701 C216.89,10.185 218.906,9.4 220.967,9.4 C223.304,9.4 224.724,10.254 224.907,12.332 L222.616,12.609 C222.524,11.617 221.928,11.201 220.829,11.201 C219.821,11.201 219.202,11.662 219.202,12.447 C219.202,13.14 219.501,13.556 220.509,13.787 L221.975,14.111 C223.945,14.572 225,15.543 225,17.414 C225,19.723 223.076,20.6 220.234,20.6 C216.271,20.6 214.896,18.799 214.164,16.559 L213.43,14.25 C212.881,12.563 212.44,11.348 210.424,11.348 C209.026,11.348 207.205,12.264 207.205,15.104 C207.205,17.321 208.728,18.708 210.309,18.708 C211.649,18.708 212.455,17.954 212.873,17.577 L213.574,19.576 Z" id="icon-lastfm"></path>
            </g>
        </g>
    </g>
</svg>