<?xml version="1.0" encoding="UTF-8"?>
<svg width="19px" height="16px" viewBox="0 0 19 16" version="1.1" xmlns="http://www.w3.org/2000/svg" xmlns:xlink="http://www.w3.org/1999/xlink">
    <!-- Generator: Sketch 41.2 (35397) - http://www.bohemiancoding.com/sketch -->
    <title>icon-github</title>
    <desc>Created with Sketch.</desc>
    <defs></defs>
    <g id="Symbols" stroke="none" stroke-width="1" fill="none" fill-rule="evenodd">
        <g id="LS-Profile-Links" transform="translate(-156.000000, -42.000000)" fill="#000">
            <g id="Group-6">
                <path d="M168.38,51.109 C167.662,51.109 167.08,51.916 167.08,52.908 C167.08,53.902 167.662,54.709 168.38,54.709 C169.098,54.709 169.68,53.902 169.68,52.908 C169.679,51.916 169.098,51.109 168.38,51.109 Z M172.906,46.426 C173.055,46.061 173.061,43.987 172.271,42 C172.271,42 170.46,42.199 167.72,44.08 C167.145,43.92 166.172,43.842 165.201,43.842 C164.228,43.842 163.256,43.92 162.681,44.08 C159.94,42.199 158.129,42 158.129,42 C157.34,43.987 157.348,46.061 157.495,46.426 C156.567,47.434 156,48.645 156,50.297 C156,57.483 161.963,57.598 163.467,57.598 C163.809,57.598 164.485,57.6 165.201,57.6 C165.916,57.6 166.593,57.598 166.933,57.598 C168.439,57.598 174.4,57.483 174.4,50.297 C174.4,48.645 173.834,47.434 172.906,46.426 Z M165.228,56.715 L165.172,56.715 C161.401,56.715 158.463,56.266 158.463,52.6 C158.463,51.721 158.773,50.907 159.51,50.231 C160.737,49.104 162.815,49.7 165.172,49.7 L165.201,49.7 L165.228,49.7 C167.585,49.7 169.664,49.104 170.892,50.231 C171.627,50.907 171.937,51.721 171.937,52.6 C171.937,56.266 169,56.715 165.228,56.715 Z M162.021,51.109 C161.303,51.109 160.721,51.916 160.721,52.908 C160.721,53.902 161.303,54.709 162.021,54.709 C162.74,54.709 163.322,53.902 163.322,52.908 C163.322,51.916 162.74,51.109 162.021,51.109 Z" id="icon-github"></path>
            </g>
        </g>
    </g>
</svg>