<?xml version="1.0" standalone="no"?> 
<!DOCTYPE svg PUBLIC "-//W3C//DTD SVG 1.1//EN" "http://www.w3.org/Graphics/SVG/1.1/DTD/svg11.dtd" >
<svg xmlns="http://www.w3.org/2000/svg">
<defs>
  <font id="gamesradar" horiz-adv-x="192">
    <font-face font-family="gamesradar"
      units-per-em="1000" ascent="840"
      descent="160" />
    <missing-glyph horiz-adv-x="0" />
    <glyph glyph-name="game-chevron-down"
      unicode="&#xF101;"
      horiz-adv-x="1000" d=" M0 355.2587875L500.091553125 -160L1000 354.77050625L862.091065625 487.4304187499999L602.6611343750001 220.126953125V840H396.9879156250001V220.52368125L139.3890375 485.721434375L0 355.2587875z" />
    <glyph glyph-name="game-chevron-left"
      unicode="&#xF102;"
      horiz-adv-x="1000" d=" M515.2587874999999 840L0 339.9084468750001L514.7705062499999 -160L647.43041875 -22.1215812500001L380.126953125 237.33886875H1000V443.02734375H380.5236812500001L645.721434375 700.595703125L515.2587874999999 840z" />
    <glyph glyph-name="game-chevron-right"
      unicode="&#xF103;"
      horiz-adv-x="1000" d=" M484.7412125 -160L1000 340.091553125L485.22949375 840L352.5695812500001 702.091065625L619.873046875 442.661134375H0V236.9726593750001H619.47631875L354.278565625 -20.5957L484.7412125 -160z" />
    <glyph glyph-name="game-chevron-up"
      unicode="&#xF104;"
      horiz-adv-x="1000" d=" M1000 324.7412125000001L499.908446875 840L0 325.2294937500001L137.87841875 192.5695812500001L397.33886875 459.8730468750001V-160H603.02734375V459.47631875L860.595703125 194.2785656250001L1000 324.7412125000001z" />
    <glyph glyph-name="open-new-window"
      unicode="&#xF105;"
      horiz-adv-x="1000" d=" M656.25 -35H125V496.25H357.6812750000001L482.6965343750001 621.25H32.10449375C14.404296875 621.25 0 609.058228125 0 594.0588375V-132.7783218750001C0 -147.8234875 14.404296875 -160 32.10449375 -160H749.1455093750001C766.876221875 -160 781.25 -147.8234875 781.25 -132.7783187499999V315.43335L656.25 196.689453125V-35z M860.1684562500001 840L491.760253125 840L491.760253125 700.16845625L758.45336875 700.16845625L437.591553125 384.311525L537.384034375 277.713621875L860.1684562500001 583.08776875L860.1684562500001 331.760253125L1000 331.760253125L1000 700.16845625L1000 840z" />
    <glyph glyph-name="quote-mark"
      unicode="&#xF106;"
      horiz-adv-x="1400" d=" M261.05957 680.600585C390.185545 787.82715 487.6709 830.112305 550.8056650000001 838.6084C616.796875 847.055665 648.3154300000001 816.049805 648.3154300000001 773.666995C648.3154300000001 720.15137 565.1855450000002 680.60059 525.0000000000001 655.209965C395.874025 579.038085 315.57617 508.530275 315.57617 455.01465C315.57617 415.46387 378.66211 415.46387 407.373045 412.58301C545.0683549999999 401.40137 634.008785 254.64844 634.008785 127.7441449999999C634.0087900000001 -38.66211 493.4326150000001 -160 329.88281 -160C126.220705 -160 0 23.34961 0 206.65039C0 387.192385 126.220705 570.59082 261.05957 680.600585zM1012.646485 680.600585C1141.796875 787.827145 1239.3066399999998 830.112305 1302.4414049999998 838.608395C1368.4082050000002 847.055665 1400 816.049805 1400 773.6669899999999C1400 720.1513649999999 1316.796875 680.600585 1276.6113300000002 655.20996C1147.5097700000001 579.0380849999999 1067.2363300000002 508.53027 1067.2363300000002 455.01465C1067.2363300000002 415.46387 1130.3222700000001 415.46387 1159.0332050000002 412.58301C1296.67969 401.40137 1385.6445350000001 254.64844 1385.6445350000001 127.7441449999999C1385.64453 -38.66211 1245.06836 -160 1081.49414 -160C877.8808600000001 -160 751.6113300000001 23.34961 751.6113300000001 206.65039C751.61133 387.192385 877.88086 570.59082 1012.646485 680.600585z" />
    <glyph glyph-name="site-logo-dot"
      unicode="&#xF107;"
      horiz-adv-x="250" d=" M0 106.9270833333334H245.1985666666667V-138.2918291666667H0z" />
    <glyph glyph-name="site-logo"
      unicode="&#xF108;"
      horiz-adv-x="6208.333333333333" d=" M522.8068041666667 454.0136708333333H370.7478833333333V112.2371416666669C370.7478833333333 52.8906250000002 405.5175791666666 39.8697916666669 459.0860999999999 39.8697916666669C479.3497708333333 39.8697916666669 501.0782874999999 42.7384458333335 522.8068041666666 42.7384458333335V-138.2918291666665C477.905275 -139.7159833333331 433.0240874999999 -145.5346666666666 388.1022124999999 -145.5346666666666C178.1412749999999 -145.5346666666666 124.5524083333333 -84.6826166666666 124.5524083333333 119.5003250000001V454.0136708333333H0V613.335775H124.5524083333333V840H370.7478833333333V613.335775H522.8068041666666V454.0136708333333z M738.179525 177.4226875000001C742.5130208333333 74.5987958333334 801.8798833333334 6.5445958333335 906.148275 6.5445958333335C965.5151375 6.5445958333335 1023.4781916666668 34.0511041666667 1046.6308583333334 89.0844708333334H1276.8961583333332C1231.9742833333332 -84.6826166666666 1071.2483708333332 -160 903.2592791666666 -160C658.5083041666667 -160 491.9637041666666 -12.2949208333333 491.9637041666666 239.6582041666667C491.9637041666666 469.9641958333333 675.8829749999999 635.0642916666667 897.4405916666666 635.0642916666667C1166.829425 635.0642916666667 1301.5136708333332 432.3055041666668 1289.9169916666665 177.4226916666667H738.179525zM1043.7215166666665 315.0162750000001C1039.3880208333333 399.00065 980.0211583333332 468.49935 897.4405916666666 468.49935C810.5875625 468.49935 752.6448541666666 406.2231458333334 738.1795249999999 315.0162750000001H1043.7215166666665z M1830.5460625 338.1892916666667C1829.0812208333332 401.88965 1772.6033541666668 446.7911791666667 1710.3271499999998 446.7911791666667C1572.7335625 446.7911791666667 1551.0253916666666 329.4816083333335 1551.0253916666666 225.2335625000001C1551.0253916666666 128.1876625 1593.0175791666666 28.2527666666666 1697.3063166666666 28.2527666666666C1782.7555333333335 28.2527666666666 1826.171875 77.4877916666667 1837.7685583333332 157.1590166666666H2076.7415416666668C2055.013020833333 -44.1756166666667 1898.5799166666668 -160 1698.7304666666666 -160C1472.8190083333334 -160 1304.8299125 -5.0520833333333 1304.8299125 225.2335625000001C1304.8299125 464.1658541666667 1456.8888333333334 635.0642916666667 1698.7304666666666 635.0642916666667C1885.5387333333333 635.0642916666667 2052.083333333333 536.5942416666667 2069.47835 338.1892916666667H1830.5460625z M2082.9060875 840H2329.1015625V510.5118833333333H2331.9702166666666C2369.628908333333 587.2534208333334 2471.0083041666667 635.0642916666667 2560.831708333333 635.0642916666667C2811.340333333333 635.0642916666667 2831.6040083333332 452.569175 2831.6040083333332 343.9672875000001V-138.2918291666667H2585.4085333333333V225.2335625C2585.4085333333333 328.0371125 2596.984866666666 432.3055041666666 2462.300625 432.3055041666666C2369.6289125 432.3055041666666 2329.101570833333 354.1194708333333 2329.101570833333 271.5592458333333V-138.2918291666667H2082.906095833333V840z M2853.7597666666666 613.335775H3092.7124041666666V481.5405291666667H3095.6014C3131.8155916666665 577.1215833333333 3215.7999666666665 627.8011083333333 3321.5128583333335 627.8011083333333C3340.3320333333336 627.8011083333333 3360.6363916666664 626.3566083333333 3379.4555666666665 622.0231125V397.5358083333333C3347.5952166666666 406.2231458333333 3318.6035166666666 412.0418291666666 3285.3393541666665 412.0418291666666C3163.655595833333 412.0418291666666 3099.9552375000003 328.0371083333333 3099.9552375000003 233.9005541666667V-138.2918291666667H2853.7597625000003V613.335775z M3378.9469416666666 381.6259750000001C3383.2804374999996 480.0756833333334 3429.6061208333335 543.837075 3496.236166666666 582.9199208333334C3562.8458666666666 620.5786125 3649.7395833333326 635.0642875000001 3735.20915 635.0642875000001C3913.3300791666666 635.0642875000001 4085.632324999999 595.9610958333334 4085.632324999999 383.0704708333334V54.3351208333335C4085.632324999999 -9.3855833333331 4085.632324999999 -78.9046249999998 4114.624025 -138.2918333333331H3866.984049999999C3858.256020833333 -115.1188208333331 3855.3873708333326 -91.9254583333331 3852.4780291666666 -67.3079458333331C3788.7776708333326 -133.9583333333332 3694.6411125 -160 3604.8584 -160C3461.4868166666665 -160 3348.5107416666665 -87.5919583333333 3348.5107416666665 67.3763C3348.5107416666665 312.1069333333334 3614.9902333333334 293.2674125 3785.868325 328.0371083333334C3827.9012041666674 336.7244458333334 3851.053870833334 351.1897791666667 3851.053870833334 397.5358083333334C3851.053870833334 454.013675 3782.9996708333338 475.7625333333334 3732.2998 475.7625333333334C3664.225254166666 475.7625333333334 3620.788570833333 445.3466791666667 3609.1918916666664 381.6259791666667H3378.9469416666666zM3697.5301125 -7.9410791666666C3814.8396833333327 -7.9410791666666 3853.9428708333335 58.6482750000001 3848.164879166667 213.6368833333335C3813.3951833333335 191.9083666666668 3749.6541375 187.5748708333334 3696.085616666667 173.0688500000001C3641.0725958333337 160.0276708333335 3594.7469125000007 136.8750041666667 3594.7469125000007 77.4877958333334C3594.746908333333 16.6967791666667 3642.5170916666666 -7.9410791666666 3697.5301125 -7.9410791666666z M4880.126954166667 -138.2918291666665H4645.5078125V-51.3777666666665H4642.618816666666C4594.807941666666 -122.3819999999999 4522.420245833333 -160 4435.506183333333 -160C4199.4628875 -160 4099.548337499999 42.7384458333333 4099.548337499999 254.1642250000001C4099.548337499999 449.7005208333334 4203.796383333332 635.0642916666667 4416.707354166666 635.0642916666667C4509.379066666666 635.0642916666667 4580.342608333333 600.3149416666666 4631.022133333333 532.2404H4633.931474999999V840H4880.126949999999V-138.2918291666665zM4345.743816666666 245.5175791666667C4345.743816666666 142.6529958333333 4383.3821625 28.2527666666668 4496.337891666667 28.2527666666668C4616.536458333333 28.2527666666668 4642.618816666666 142.6529958333334 4642.618816666666 238.2340500000002C4642.618816666666 346.8562833333335 4603.515625 446.7911791666668 4496.337891666667 446.7911791666668C4383.3821625 446.7911791666667 4345.743816666666 341.0782875000001 4345.743816666666 245.5175791666667z M4914.7338875 381.6259750000001C4919.087729166667 480.0756833333334 4965.433758333334 543.837075 5032.043458333333 582.9199208333334C5098.673504166666 620.5786125 5185.546875 635.0642875000001 5271.016441666667 635.0642875000001C5449.096683333332 635.0642875000001 5621.4599625 595.9610958333334 5621.4599625 383.0704708333334V54.3351208333335C5621.4599625 -9.3855833333331 5621.4599625 -78.9046249999998 5650.431316666666 -138.2918333333331H5402.7709958333335C5394.0633125 -115.1188208333331 5391.215004166666 -91.9254583333331 5388.264975000001 -67.3079458333331C5324.5849625 -133.9583333333332 5230.4484041666665 -160 5140.6453458333335 -160C4997.253420833333 -160 4884.318033333333 -87.5919583333333 4884.318033333333 67.3763C4884.318033333333 312.1069333333334 5150.777179166666 293.2674125 5321.6959625 328.0371083333334C5363.68815 336.7244458333334 5386.8611625 351.1897791666667 5386.8611625 397.5358083333334C5386.8611625 454.013675 5318.786616666667 475.7625333333334 5268.08675 475.7625333333334C5200.032550000001 475.7625333333334 5156.595866666667 445.3466791666667 5144.999183333333 381.6259791666667H4914.7338875zM5233.317058333333 -7.9410791666666C5350.646975 -7.9410791666666 5389.729816666667 58.6482750000001 5383.931479166667 213.6368833333335C5349.202475000001 191.9083666666668 5285.502116666667 187.5748708333334 5231.892904166667 173.0688500000001C5176.900229166667 160.0276708333335 5130.513508333333 136.8750041666667 5130.513508333333 77.4877958333334C5130.513508333333 16.6967791666667 5178.2836916666665 -7.9410791666666 5233.317058333333 -7.9410791666666z M5657.0231125 613.335775H5895.955404166667V481.5405291666667H5898.885091666667C5935.0789375 577.1215833333333 6019.042970833333 627.8011083333333 6124.79655 627.8011083333333C6143.615725 627.8011083333333 6187.642416666667 626.3566083333333 6206.441245833333 622.0231125V397.5358083333333C6174.621583333334 406.2231458333333 6121.907554166667 412.0418291666666 6088.5620125 412.0418291666666C5966.9596375 412.0418291666666 5903.1778958333325 328.0371083333333 5903.1778958333325 233.9005541666667V-138.2918291666667H5657.023112499999V613.335775z" />
    <glyph glyph-name="youtube"
      unicode="&#xF109;"
      horiz-adv-x="1000" d=" M989.959715625 530.88745C989.959715625 530.88745 980.194090625 600.284421875 950.2563468750002 630.87829375C912.2619625000002 670.978390625 869.567871875 671.268309375 850.036621875 673.602903125C710.1745593750001 683.75 500.27465625 683.75 500.27465625 683.75H499.75585625C499.75585625 683.75 289.8254375 683.75 149.9328593749999 673.6029062499999C130.4016093749999 671.2683125 87.7532937499999 670.97839375 49.7283906249999 630.8782968749999C19.7753874999999 600.284425 10.0097624999999 530.887453125 10.0097624999999 530.887453125S-0.0000031250001 449.3139656250001 -0.0000031250001 367.74048125V291.3244656249999C-0.0000031250001 209.68994375 10.0097624999999 128.0859406249999 10.0097624999999 128.0859406249999S19.7753874999999 58.5974156249999 49.7283906249999 28.04931875C87.7532937499999 -12.1118125 137.7716031249999 -10.7385218749999 160.0189187499999 -15.0415C239.9902312499999 -22.73193125 499.9999968749999 -25.0817843750001 499.9999968749999 -25.0817843750001S710.1745562499998 -24.807125 850.0366187499998 -14.6447718750001C869.5678687499998 -12.2644000000001 912.2619593749998 -12.1118125000002 950.25634375 28.0493187499999C980.1940874999998 58.5974156249999 989.9597124999998 128.0859406249998 989.9597124999998 128.0859406249998S999.9999968749999 209.6899437499999 999.9999968749999 291.3244656249998V367.7404812499999C999.9999999999998 449.3139656250001 989.959715625 530.88745 989.959715625 530.88745zM368.5607906250001 160.7397468749999V502.384034375L688.049315625 335.1171875L368.5607906250001 160.7397468749999z" />
    <glyph glyph-name="amazon"
      unicode="&#xF10A;"
      horiz-adv-x="1000" d=" M865.2954093750001 16.513671875C453.2775875 -179.56176875 197.5708 -15.46875 33.84399375 84.2016593750001C23.757934375 90.4577625000001 6.5307625 82.67578125 21.469115625 65.494384375C75.98876875 -0.6372062500001 254.684446875 -160 487.991334375 -160C721.40503125 -160 860.321046875 -32.5891125000001 877.685546875 -10.341796875C894.8364250000001 11.6613781250001 882.720946875 23.8073718749999 865.2954093750001 16.513671875zM980.98755 80.3869625C969.87915 94.821778125 913.72680625 97.507325 878.2959000000001 93.2348625000001C842.8955093750001 88.931884375 789.703371875 67.294921875 794.34204375 54.29443125C796.722415625 49.4421375000001 801.5747093750001 51.6699187500001 825.8972187500001 53.7756312499999C850.3112812500001 56.24755625 918.7011750000001 64.8535125 932.8613312500001 46.237790625C947.235109375 27.4084437499999 911.1633343750002 -61.824953125 904.5410187500001 -76.2597687499999C898.1628437500001 -90.6640656249999 906.9824250000001 -94.35669375 918.914796875 -84.7741718749999C930.786134375 -75.1916531249998 952.117921875 -50.3503437499999 966.461184375 -15.1940937499999C980.682371875 20.1452624999999 989.4104 69.4311531249999 980.98755 80.3869625z M760.986328125 327.79296875V656.131590625C760.986328125 712.528075 706.4209000000001 840 510.375975 840C314.285278125 840 209.991453125 717.44140625 209.991453125 607.08984375L373.8555875 592.426146875C373.8555875 592.426146875 410.3546125000001 702.716675 495.086665625 702.716675C579.77294375 702.716675 573.9746062500001 634.113159375 573.9746062500001 619.281615625V547.9010000000001C465.4541000000001 544.299925 195.9533656250001 513.26355 195.9533656250001 286.044921875C195.9533656250001 41.66015625 504.4250468750001 31.40625 605.590815625 189.365234375C609.497065625 182.926025 613.891596875 176.669921875 619.4763125000001 170.780028125C656.677240625 131.6564937499999 706.35985625 85.0561499999999 706.35985625 85.0561499999999L832.79418125 210.0256312499998C832.855225 210.08666875 760.986328125 266.5441906250001 760.986328125 327.79296875zM386.1389156250001 316.2573249999999C386.1389156250001 421.298828125 498.626709375 442.523803125 574.005128125 445.026246875V354.663696875C573.974609375 175.693359375 386.1389156250001 202.76245 386.1389156250001 316.2573249999999z" />
    <glyph glyph-name="arrow-down-dotted"
      unicode="&#xF10B;"
      horiz-adv-x="1000" d=" M812.5 246.25L499.679565625 -160L187.5 246.25H812.5z M343.75 715H656.25V590H343.75z M343.75 496.25H656.25V340H343.75z M343.75 840H656.25V777.5H343.75z" />
    <glyph glyph-name="arrow-down"
      unicode="&#xF10C;"
      horiz-adv-x="1000" d=" M1000 740L499.65625 -60L0 740H1000z" />
    <glyph glyph-name="arrow-left"
      unicode="&#xF10D;"
      horiz-adv-x="1000" d=" M900 -160L100 340.34375L900 840V-160z" />
    <glyph glyph-name="arrow-right"
      unicode="&#xF10E;"
      horiz-adv-x="1000" d=" M131.25 840L931.25 339.65625L131.25 -160V840z" />
    <glyph glyph-name="arrow-up"
      unicode="&#xF10F;"
      horiz-adv-x="1000" d=" M0 -60L500.34375 740L1000 -60H0z" />
    <glyph glyph-name="burger"
      unicode="&#xF110;"
      horiz-adv-x="1000" d=" M0 117.78125H1000V6.65625H0z M0 395.5625H1000V284.46875H0z M0 673.34375H1000V562.25H0z" />
    <glyph glyph-name="category-audio-visual"
      unicode="&#xF111;"
      horiz-adv-x="1000" d=" M233.65625 131.5C210.3125 131.5 186.65625 128.40625 163.28125 122.625C98.65625 105.96875 44 68.1875 17.125 21.53125C0.5625 -7.21875 -4.125 -37 3.71875 -64.5624999999999C19.625 -121.6875 86.4375 -160 169.9375 -160C193.40625 -160 217.28125 -156.84375 240.8125 -150.90625C325.09375 -129.21875 389.90625 -72.59375 401.90625 -10L403.8125 13.0625V641.375L894.4375 698.03125V199.15625L869.375 203.1875C834.5625 208.5937499999999 796.40625 206.625 759.375 197.21875C694.78125 180.5625 640.09375 142.875 613.21875 96.21875C596.59375 67.4375000000001 591.9062500000001 37.71875 599.65625 10.0312500000001C615.65625 -46.9374999999999 682.4375 -85.28125 765.75 -85.28125C789.375 -85.28125 813.25 -82.1874999999999 836.75 -76.125C921.15625 -54.53125 985.875 2.1250000000001 997.8125 64.7187500000001L1000 87.09375V840L983.34375 837.25L983.0625 838.46875L295.65625 765.6875L298.28125 124.625L273.28125 128.40625C260.46875 130.5 247.21875 131.5 233.65625 131.5z" />
    <glyph glyph-name="category-cameras-and-camcorders"
      unicode="&#xF112;"
      horiz-adv-x="1000" d=" M500 510.5C381.6562500000001 510.5 285.71875 418.875 285.71875 305.9375C285.71875 192.96875 381.6875 101.4062500000001 500 101.4062500000001C618.3125 101.4062500000001 714.25 192.9375 714.25 305.9375000000001C714.25 418.84375 618.3125 510.5 500 510.5M500 169.5C421.21875 169.5 357.0625 230.71875 357.0625 305.90625C357.0625 381.03125 421.1875 442.25 500 442.25C578.78125 442.25 642.90625 381.03125 642.90625 305.90625C642.90625 230.71875 578.78125 169.5 500 169.5M803.59375 374.0625C833.15625 374.0625 857.09375 396.9375 857.09375 425.1875C857.09375 453.4374999999999 833.15625 476.4062499999999 803.59375 476.4062499999999C773.9375 476.4062499999999 749.96875 453.4687499999999 749.96875 425.1875C749.96875 396.96875 773.9375 374.0625 803.59375 374.0625M928.5625 612.71875H749.96875L642.90625 715H357.0625L250 612.71875H71.40625C32 612.71875 0 582.1875 0 544.5V408.21875V169.5V33.21875C0 -4.40625 32 -35 71.40625 -35H928.5625C967.9375 -35 1000 -4.40625 1000 33.21875V544.5C1000 582.1875 967.9375 612.71875 928.5625 612.71875M928.5625 33.21875H71.40625V544.5H250H279.59375L300.5 564.5L386.71875 646.78125H613.21875L699.5 564.5L720.40625 544.5H750H928.59375V33.21875z" />
    <glyph glyph-name="category-car-tech"
      unicode="&#xF113;"
      horiz-adv-x="1000" d=" M1000 294.59375C1000 314.09375 995.5625 332.5937500000001 987.59375 349.5C986.75 353.875 985.8125000000002 358.125 984.65625 362.53125L897.8125 575.125L897.15625 577C866.6875 666.46875 823.5 749.09375 713.84375 749.09375H294.53125C182.125 749.09375 142.4375 664.3125 111.5 577.5625L20.59375 364.4687500000001C7.46875 343.65625 0 319.8125 0 294.59375V228.46875C0 218.21875 1.21875 208.1875 3.5625 198.59375C1.21875 192.71875 0 186.40625 0 179.84375V-16.90625C0 -45.75 23.625 -69.09375 52.875 -69.09375H162.6875C191.875 -69.09375 215.5 -45.75 215.5 -16.90625V81.46875H790.7187499999999V-16.90625C790.7187499999999 -45.75 814.3437499999999 -69.09375 843.53125 -69.09375H947.09375C976.34375 -69.09375 999.9374999999998 -45.75 999.9374999999998 -16.90625V179.84375C999.9374999999998 186.40625 998.6875 192.65625 996.4062499999998 198.59375C998.84375 208.15625 1000 218.21875 1000 228.46875V294.59375zM175.90625 556.21875C210.46875 652.59375 238.28125 682.03125 294.53125 682.03125H713.8437499999999C769.6874999999999 682.03125 800.7187499999999 649.15625 832.3749999999999 556.625L895.6874999999999 429.71875C875.0624999999999 437.25 852.2187499999998 441.5625 828.2812499999999 441.5625H171.6875C150.09375 441.5625 129.5 438.09375 110.5 431.9375L175.90625 556.21875zM230.375 178.59375H114.5625C93.71875 178.59375 76.75 210.3125 76.75 249.96875C76.75 289.40625 93.71875 321.0625 114.5625 321.0625H230.4375000000001C251.3437500000001 321.0625 268.1875 289.375 268.1875 249.96875C268.125 210.3125 251.28125 178.59375 230.375 178.59375L230.375 178.59375zM639.5625 211.28125H370.1250000000001C356.9062500000001 211.28125 346.21875 226.4375 346.21875 245.1875C346.21875 264.09375 356.9062500000001 279.1875000000001 370.1250000000001 279.1875000000001H639.5625C652.8125 279.1875000000001 663.46875 264.1250000000001 663.46875 245.1875C663.53125 226.4375 652.8125 211.28125 639.5625 211.28125L639.5625 211.28125zM882.53125 178.59375H766.71875C745.875 178.59375 728.90625 210.3125 728.90625 249.96875C728.90625 289.40625 745.875 321.0625 766.71875 321.0625H882.53125C903.40625 321.0625 920.2812499999998 289.375 920.2812499999998 249.96875C920.28125 210.3125 903.40625 178.59375 882.53125 178.59375L882.53125 178.59375z" />
    <glyph glyph-name="category-components"
      unicode="&#xF114;"
      horiz-adv-x="1000" d=" M786.125 672.4375H213.84375C190.90625 672.4375 172.34375 653.875 172.34375 630.9375V51.1562499999999C172.34375 28.46875 190.90625 9.7187499999999 213.84375 9.7187499999999H786.25C809.125 9.7187499999999 827.6875 28.4999999999999 827.6875 51.1562499999999V630.9375C827.6875 653.875 809.15625 672.4375 786.125 672.4375L786.125 672.4375zM736.21875 101.5625H263.78125V580.625H736.21875V101.5625z M226.34375 -31.4375H307.40625V-160H226.34375z M383.125 -31.4375H464.1875V-160H383.125z M535.375 -31.4375H616.5625V-160H535.375z M692.71875 -31.4375H773.65625V-160H692.71875z M226.34375 840H307.40625V711.4375H226.34375z M383.125 840H464.1875V711.4375H383.125z M535.375 840H616.5625V711.4375H535.375z M692.71875 840H773.65625V711.4375H692.71875z M0 613.65625H128.4375V532.65625H0z M0 456.875H128.4375V375.875H0z M0 304.625H128.4375V223.5624999999999H0z M0 147.34375H128.4375V66.3437500000001H0z M871.53125 613.65625H1000V532.65625H871.53125z M871.53125 456.875H1000V375.875H871.53125z M871.53125 304.625H1000V223.5624999999999H871.53125z M871.53125 147.34375H1000V66.3437500000001H871.53125z M677.09375 239.625C677.09375 194.4375 640.28125 157.4375 595.0625 157.4375C549.9375000000001 157.4375 512.8750000000001 194.4375000000001 512.8750000000001 239.625C512.8750000000001 284.75 550 321.65625 595.0625 321.65625C640.28125 321.59375 677.09375 284.75 677.09375 239.625L677.09375 239.625z" />
    <glyph glyph-name="category-computing"
      unicode="&#xF115;"
      horiz-adv-x="1000" d=" M923.0625 840H76.90625C34.4375 840 0 805.5 0 763.0625V147.75C0 105.21875 34.4375 70.8125 76.90625 70.8125H423.0625V-6.125C423.0625 -6.125 423.0625 -83.125 346.15625 -83.125C346.15625 -83.125 307.65625 -83.125 307.65625 -121.5625C307.6875 -160 346.1875 -160 346.1875 -160H653.75C692.25 -160 692.25 -121.59375 692.25 -121.59375S692.25 -83.15625 653.75 -83.15625C576.875 -83.15625 576.875 -6.15625 576.875 -6.15625V70.7812499999999H922.9375C965.46875 70.7812499999999 1000 105.1874999999999 1000 147.7187499999999V763.0625C1000 805.5 965.53125 840 923.0625 840M923.0625 224.625H76.90625V763.0625H923.0625V224.625z" />
    <glyph glyph-name="category-disc"
      unicode="&#xF116;"
      horiz-adv-x="1000" d=" M500 777.5C741.21875 777.5 937.5 581.25 937.5 340C937.5 98.78125 741.21875 -97.5 500 -97.5C258.75 -97.5 62.5 98.78125 62.5 340C62.5 581.25 258.75 777.5 500 777.5M500 840C223.8125 840 0 616.1875 0 340S223.8125 -160 500 -160S1000 63.8125 1000 340S776.1875 840 500 840L500 840z M375 340C375 270.9644062711509 430.9644062711508 215 500 215C569.0355937288491 215 625 270.9644062711509 625 340C625 409.0355937288492 569.0355937288491 465 500 465C430.9644062711508 465 375 409.0355937288492 375 340z" />
    <glyph glyph-name="category-gaming"
      unicode="&#xF117;"
      horiz-adv-x="1000" d=" M450.90625 318.40625C450.90625 313.96875 449.46875 310.3125 446.59375 307.5C443.8125 304.65625 440.15625 303.28125 435.8125 303.28125H344.96875V212.46875C344.96875 208.09375 343.59375 204.4375 340.78125 201.65625C337.9375 198.78125 334.28125 197.34375 329.875 197.34375H269.375C265 197.34375 261.34375 198.7812499999999 258.46875 201.65625C255.65625 204.4375 254.21875 208.09375 254.21875 212.46875V303.28125H163.5C159.0625 303.28125 155.46875 304.65625 152.625 307.5C149.8125 310.3125 148.40625 313.96875 148.40625 318.40625V378.8750000000001C148.40625 383.2812500000001 149.8125 386.8750000000001 152.625 389.7500000000001C155.46875 392.5312500000001 159.0625 394.0000000000001 163.5 394.0000000000001H254.21875V484.7187500000001C254.21875 489.1562500000001 255.65625 492.7812500000001 258.46875 495.6250000000001C261.3125 498.4687500000001 265 499.8750000000001 269.375 499.8750000000001H329.875C334.28125 499.8750000000001 337.9375 498.4687500000001 340.78125 495.6250000000001C343.59375 492.8125000000001 344.96875 489.1562500000001 344.96875 484.7187500000001V394.0000000000001H435.8125C440.1875 394.0000000000001 443.8125 392.5312500000001 446.59375 389.7500000000001C449.46875 386.8750000000001 450.90625 383.2500000000001 450.90625 378.8750000000001V318.40625z M713.8125 234.8125C700.7812499999999 221.78125 685.09375 215.3125 666.65625 215.3125C648.25 215.3125 632.53125 221.7812500000001 619.53125 234.8125C606.5625 247.8125 600 263.625 600 281.96875C600 300.4375 606.5625 316.0625 619.53125 329.0625000000001C632.53125 342.0937500000001 648.25 348.6250000000001 666.65625 348.6250000000001C685.09375 348.6250000000001 700.7812499999999 342.1250000000001 713.8125 329.0625000000001C726.84375 316.03125 733.34375 300.40625 733.34375 281.96875C733.34375 263.625 726.84375 247.8125 713.8125 234.8125L713.8125 234.8125z M847.125 368.21875C834.15625 355.125 818.46875 348.625 799.96875 348.625C781.625 348.625 765.875 355.125 752.84375 368.21875C739.8125 381.1875 733.3125 396.9375000000001 733.3125 415.28125C733.3125 433.71875 739.8125 449.4062500000001 752.84375 462.4062500000001C765.8750000000001 475.46875 781.625 481.9375000000001 799.96875 481.9375000000001C818.46875 481.9375000000001 834.15625 475.46875 847.125 462.4062500000001C860.1562500000001 449.4062500000001 866.65625 433.7187500000001 866.65625 415.2812500000001C866.65625 396.9375 860.21875 381.15625 847.125 368.21875L847.125 368.21875z M713.34375 40C645.09375 40 583.84375 63.0312499999999 531.1875 108.59375H468.75C416.15625 63.03125 354.90625 40 286.65625 40C207.8125 40 139.65625 69.53125 83.96875 127.9375C28.25 186.1875 0 257.5625 0 340C0 422.53125 28.25 493.90625 84 552.15625C139.6875 610.4375 207.84375 640 286.65625 640H713.34375C792.0624999999999 640 860.2187499999999 610.4375 916.0625 552.125C971.75 493.875 1000 422.5 1000 340C1000 257.5625000000001 971.75 186.21875 916.0625 127.96875C860.28125 69.5625 792.125 40 713.34375 40zM450.6875 159.46875H549.28125L556.1875 153.1562499999999C601.96875 111.21875 653.3125000000001 90.875 713.34375 90.875C779.6875000000001 90.875 834.7500000000001 114.78125 881.7187500000001 163.8749999999999C928.5937500000002 212.9999999999999 951.3750000000002 270.6249999999999 951.3750000000002 340.03125C951.3750000000002 409.53125 928.5937500000002 467.1249999999999 881.7187500000001 516.21875C834.6875000000001 565.3125 779.6250000000001 589.21875 713.3437500000001 589.21875H286.65625C220.3125 589.21875 165.25 565.34375 118.34375 516.21875C71.4375 467.125 48.59375 409.5 48.59375 340C48.59375 270.5625 71.4375 213 118.34375 163.84375C165.25 114.7499999999999 220.3125 90.84375 286.65625 90.84375C346.71875 90.84375 398.125 111.1875 443.78125 153.125L450.6875 159.46875z" />
    <glyph glyph-name="category-laptops"
      unicode="&#xF118;"
      horiz-adv-x="1000" d=" M946.40625 152.5H928.59375V565C928.59375 606.40625 896.625 640 857.15625 640H142.875C103.46875 640 71.4375 606.40625 71.4375 565V152.5H53.5625C24 152.5 0 127.28125 0 96.25S24 40 53.5625 40H142.84375H857.1249999999999H946.4062499999998C975.9687499999998 40 999.9999999999998 65.1875 999.9999999999998 96.25S975.96875 152.5 946.40625 152.5M553.59375 77.5H446.4375C436.5625 77.5 428.5625 85.9375 428.5625 96.28125C428.5625 106.59375 436.5625 115 446.4375 115H553.59375C563.40625 115 571.40625 106.5937500000001 571.40625 96.28125C571.40625 85.90625 563.40625 77.5 553.59375 77.5M857.125 152.5H142.875V565H857.15625L857.125 152.5L857.125 152.5z" />
    <glyph glyph-name="category-pc-mac"
      unicode="&#xF119;"
      horiz-adv-x="1000" d=" M923.0625 840H76.90625C34.4375 840 0 805.5 0 763.0625V147.75C0 105.21875 34.4375 70.8125 76.90625 70.8125H423.0625V-6.125C423.0625 -6.125 423.0625 -83.125 346.15625 -83.125C346.15625 -83.125 307.65625 -83.125 307.65625 -121.5625C307.6875 -160 346.1875 -160 346.1875 -160H653.75C692.25 -160 692.25 -121.59375 692.25 -121.59375S692.25 -83.15625 653.75 -83.15625C576.875 -83.15625 576.875 -6.15625 576.875 -6.15625V70.7812499999999H922.9375C965.46875 70.7812499999999 1000 105.1874999999999 1000 147.7187499999999V763.0625C1000 805.5 965.53125 840 923.0625 840M923.0625 224.625H76.90625V763.0625H923.0625V224.625z" />
    <glyph glyph-name="category-phones"
      unicode="&#xF11A;"
      horiz-adv-x="1000" d=" M690.96875 840H309.0625C261.28125 840 222.21875 802.5625 222.21875 756.65625V-76.6875000000001C222.21875 -122.5000000000001 261.28125 -160.0312500000001 309 -160.0312500000001H690.96875C738.6875 -160.0312500000001 777.75 -122.5000000000001 777.75 -76.6875000000001V756.65625C777.78125 802.5625 738.71875 840 690.96875 840z M447.90625 773.375H552.09375C561.6562500000001 773.375 569.40625 765.875 569.40625 756.65625C569.40625 747.4375 561.53125 740.0625 552.09375 740.0625H447.9062500000001C438.3437500000001 740.0625 430.5625000000001 747.4375 430.5625000000001 756.65625C430.5625 765.875 438.40625 773.375 447.90625 773.375z M447.90625 -76.65625C447.90625 -104.2877463899719 471.2294163135021 -126.6874999999999 500 -126.6874999999999C528.7705836864978 -126.6874999999999 552.09375 -104.2877463899719 552.09375 -76.65625C552.09375 -49.024753610028 528.7705836864978 -26.625 500 -26.625C471.2294163135021 -26.625 447.90625 -49.024753610028 447.90625 -76.65625z M297.4375 673.34375H702.5625V6.6875000000001H297.4375z" />
    <glyph glyph-name="category-tablet"
      unicode="&#xF11B;"
      horiz-adv-x="1000" d=" M782.875 840H217.1875C158.84375 840 111.125 791.8125 111.125 732.8125V-52.9374999999999C111.125 -111.8125 158.84375 -160 217.1875 -160H782.875C841.1562499999999 -160 888.90625 -111.8125 888.90625 -52.78125V732.8125C888.875 791.8125 841.15625 840 782.875 840zM500 -124.28125C480.4375 -124.28125 464.65625 -108.21875 464.65625 -88.46875C464.65625 -68.8124999999999 480.4375 -52.7499999999999 500 -52.7499999999999S535.375 -68.7187499999999 535.375 -88.46875S519.5625 -124.28125 500 -124.28125zM782.875 -17.21875H217.125V732.8125H782.875V-17.21875z" />
    <glyph glyph-name="category-televisions"
      unicode="&#xF11C;"
      horiz-adv-x="1000" d=" M933.3125 640H66.65625C30 640 0 611.53125 0 576.84375V166.3125C0 131.625 30 103.15625 66.65625 103.15625H433.3125V71.5625C418.5 71.5625 373.25 71.5625 366.65625 71.5625C333.3125 71.5625 333.3125 40 333.3125 40H666.625C666.625 71.5625 633.34375 71.5625 633.34375 71.5625S586.46875 71.5625 566.6875 71.5625V103.15625H933.3125C970 103.15625 1000 131.59375 1000 166.3125V576.84375C1000 611.53125 970 640 933.3125 640zM923.8125 202.625C923.8125 186.7812499999999 910.2187500000002 173.90625 893.5625 173.90625H106.4375C89.65625 173.90625 76.1875 186.8125 76.1875 202.625V542.125C76.1875 557.90625 89.6875 570.75 106.4375 570.75H893.5624999999999C910.1562499999998 570.75 923.7812499999998 557.84375 923.7812499999998 542.125L923.8125 202.625L923.8125 202.625z" />
    <glyph glyph-name="category-wearables"
      unicode="&#xF11D;"
      horiz-adv-x="1000" d=" M641.8125 626.84375V722.3125C641.8125 787 597.5 840 543.4375 840H406.78125C352.71875 840 308.4375 787 308.4375 722.3125V629.65625C207.6875 572.28125 139.46875 464.0625 139.46875 340C139.46875 215.96875 207.75 107.6875 308.5 50.3125V-42.40625C308.5 -107 352.78125 -160.0312499999999 406.84375 -160.0312499999999H543.5C597.5625 -160.0312499999999 641.875 -107.0312499999999 641.875 -42.40625V53.15625C740.0312499999999 111.1875 806.0937499999999 217.8750000000001 806.0937499999999 340.0000000000001S739.9375 568.71875 641.8125 626.84375zM472.78125 117.78125C350.28125 117.78125 250.59375 217.5 250.59375 340C250.59375 462.5625 350.28125 562.21875 472.7812499999999 562.21875C595.34375 562.21875 695 462.5625 695 340C695 217.5 595.34375 117.78125 472.78125 117.78125z" />
    <glyph glyph-name="chevron-down"
      unicode="&#xF11E;"
      horiz-adv-x="1000" d=" M1000 610.5L750.21875 611.09375L501.0312500000001 339.90625L250.78125 612.21875L0 612.71875L501.0312500000001 67.25z" />
    <glyph glyph-name="chevron-left"
      unicode="&#xF11F;"
      horiz-adv-x="1000" d=" M770.5 840L771.09375 590.21875L499.90625 341.0625L772.1875 90.78125L772.75 -160L227.28125 341.0625z" />
    <glyph glyph-name="chevron-right"
      unicode="&#xF120;"
      horiz-adv-x="1000" d=" M229.5 840L228.90625 590.21875L500.09375 341.0625L227.78125 90.78125L227.28125 -160L772.75 341.0625z" />
    <glyph glyph-name="chevron-up"
      unicode="&#xF121;"
      horiz-adv-x="1000" d=" M0 69.5L249.78125 68.90625L498.96875 340.09375L749.21875 67.75L1000 67.25L498.96875 612.71875z" />
    <glyph glyph-name="comment"
      unicode="&#xF122;"
      horiz-adv-x="1000" d=" M777.8125 749.09375H222.25C99.46875 749.09375 0 657.5 0 544.53125V340C0 227.09375 99.4375 135.4375 222.21875 135.4375H333.34375V-69.09375L555.5625 135.4375H777.78125C900.5624999999999 135.4375 999.96875 227.09375 999.96875 340V544.53125C1000 657.5 900.5625 749.09375 777.8125 749.09375z" />
    <glyph glyph-name="envelope-solid"
      unicode="&#xF123;"
      horiz-adv-x="1000" d=" M958.4375000000005 655.0624999999998L539.6875000000013 316.2812499999996C517.3750000000013 298.0624999999988 480.8125000000007 298.0624999999988 458.5000000000008 316.2812499999996L39.7500000000015 655.0624999999998C25.4687500000017 666.5937500000007 1.8e-12 656.5937499999991 1.8e-12 635.6249999999993V44.3749999999989C1.8e-12 15.6874999999986 23.5000000000021 -7.8125000000016 52.1875000000023 -7.8125000000016H947.781250000002C976.4687500000022 -7.8125000000016 1000.0000000000018 15.6874999999986 1000.0000000000018 44.3749999999989V635.6249999999993C999.8437500000002 659.0000000000009 975.2500000000008 668.5625000000003 958.4375000000005 655.0624999999998z M106.0625000000002 655.0624999999998L459.7187500000004 369.0625000000003C482.0000000000011 351.1562500000009 518.5937500000009 351.1562500000009 540.9062500000008 369.0625000000003L894.4062500000011 655.0624999999998C916.7187500000013 672.9687499999991 911.5625000000005 687.8437499999991 882.9062500000014 687.8437499999991H117.6250000000021C88.5937499999994 687.65625 83.7500000000002 672.9374999999999 106.0625000000002 655.0624999999998z" />
    <glyph glyph-name="envelope"
      unicode="&#xF124;"
      horiz-adv-x="1000" d=" M0 671.4375V8.5625H1000V671.4375H0zM500 262.0625L89.84375 622.28125H910.15625L500 262.0625zM336.59375 340.09375L49.15625 87.65625V592.5625L336.59375 340.09375zM373.875 307.40625L499.96875 196.65625L626.125 307.40625L910.46875 57.71875H89.5L373.875 307.40625zM663.40625 340.09375L950.8125 592.53125V87.65625L663.40625 340.09375z" />
    <glyph glyph-name="expand-image"
      unicode="&#xF125;"
      horiz-adv-x="1000" d=" M318.74084375 32.1691906250001L504.07409375 -160L689.2700156249999 31.89453125L638.1835906249999 81.363525L542.0532187499999 -18.2763687500001V212.83325H465.8813437499999V-18.12378125L370.3918406249999 80.722653125L318.74084375 32.1691906250001z M689.27001875 647.891846875L503.967284375 840L318.74084375 648.07495L369.842528125 598.60595625L465.988159375 698.2916250000001V467.136228125H542.1752937499998V698.093259375L637.6342781249998 599.246825L689.27001875 647.891846875z M193.359375 521.0302750000001L0 336.9787625000001L193.191528125 152.988284375L242.996215625 203.769534375L142.6391593749999 299.2590375000001H375.320434375V374.9426312500001H142.852784375L242.3553468749999 469.7607468750001L193.359375 521.0302750000001z M806.6406249999999 152.98828125L999.9999999999998 337.03979375L806.7932124999998 521.0302718749999L756.9885249999998 470.249021875L857.2998031249998 374.7900375H624.6948218749998V299.10644375H857.1472156249998L757.659909375 204.318846875L806.6406249999999 152.98828125z" />
    <glyph glyph-name="facebook"
      unicode="&#xF126;"
      horiz-adv-x="1000" d=" M576.9375 -160H370.125V340H266.71875V512.34375H370.1250000000001V615.78125C370.1250000000001 756.40625 428.4375 840 594.3125 840H732.4375000000001V667.65625H646.0625000000001C581.5000000000001 667.65625 577.2812500000001 643.53125 577.2812500000001 598.625L577.0312500000001 512.34375H733.2812500000001L714.96875 340H576.9375000000001V-160L576.9375 -160z" />
    <glyph glyph-name="filled-envelope"
      unicode="&#xF127;"
      horiz-adv-x="999.9999999999999" d=" M999.9999999999998 340.0000000000001C999.9999999999998 63.7613078947369 776.1872947368421 -159.9999999999999 499.9999999999999 -159.9999999999999C223.864102631579 -159.9999999999999 0 63.7613078947369 0 340.0000000000001C0 616.1358973684211 223.864102631579 840 499.9999999999999 840C776.1872947368421 840 999.9999999999998 616.1358973684211 999.9999999999998 340.0000000000001z M758.5320736842104 550.5263157894738L235.3772605263158 550.5263157894738L496.9289684210526 353.9288657894737z M496.9289684210526 278.2195736842106L411.8009868421053 340.5396789473685L224.8406657894737 129.4736842105264L772.6665289473684 129.4736842105264L591.5398842105263 347.645455263158z M815.7894736842105 180.3063315789475L815.7894736842105 512.9672078947369L644.8910368421052 384.5235394736843z M184.2105263157895 512.7616157894737L184.2105263157895 176.0916947368421L364.0779184210527 377.5719578947369z" />
    <glyph glyph-name="gadgets"
      unicode="&#xF128;"
      horiz-adv-x="1000" d=" M785.49194375 840H179.6875C132.385253125 840 93.75 802.570190625 93.75 756.671753125V-76.6564937499999C93.75 -122.4633781250001 132.385253125 -160 179.6875 -160H785.49194375C832.7941906249999 -160 871.5209968749999 -122.4633781250001 871.5209968749999 -76.65649375V756.671753125C871.5209968749999 802.570190625 832.794190625 840 785.49194375 840zM796.9970687499999 6.65649375H168.182371875V673.328246875H796.9970687499999V6.65649375z M507.17163125 618.1829843749999H461.059571875C461.059571875 488.651125 461.059571875 225.40649375 461.059571875 225.40649375C389.099121875 258.09081875 304.901125 214.35913125 290.908815625 149.4482406249999C286.4532499999999 128.299559375 295.791628125 105.5029281249999 304.580690625 95.0048812499999C353.7292499999999 36.350096875 461.0595718749999 63.693846875 510.192871875 126.77368125C532.10449375 154.78881875 517.2424312499999 195.0415031250001 517.2424312499999 254.9780281250001C517.2424312499999 336.4599625 517.2424312499999 414.3408218750001 517.2424312499999 495.3955093750001C547.5158687499999 472.8735375000001 624.6643062499999 434.0551781250001 636.932371875 393.8330093750001C644.53125 368.8696312500001 634.338378125 327.3046906250001 626.312253125 306.0949718750001C623.9013656249999 299.7473156250001 617.0654281249999 294.345703125 620.2392562499999 287.96753125C641.4794906249999 272.18994375 651.916503125 305.637209375 658.0810531249999 319.7058125C664.611815625 334.9035656250001 670.898434375 353.671878125 673.27880625 366.61133125C696.92993125 505.252684375 519.6533187499999 512.607421875 507.17163125 618.1829843749999z" />
    <glyph glyph-name="google-plus"
      unicode="&#xF129;"
      horiz-adv-x="1000" d=" M0 840H1000V-160H0V840z M851.21875 518.21875H723.5V645.9375H691.5625V518.21875H563.8124999999999V486.28125H691.5625V358.5625H723.4999999999999V486.28125H851.2187499999999V518.21875zM444.9375 279.03125C427.0625 291.65625 392.96875 322.4062499999999 392.96875 340.4375C392.96875 361.5625 399 372.0625 430.84375 396.96875C463.4999999999999 422.40625 486.5624999999999 458.2812499999999 486.5624999999999 500C486.5624999999999 549.65625 464.4374999999999 598.0625 422.90625 614H485.4374999999999L529.6874999999999 645.9375H332.3124999999999C243.7812499999999 645.9375 160.4999999999999 578.875 160.4999999999999 501.28125C160.4999999999999 421.96875 220.8124999999999 357.90625 310.8437499999999 357.90625L329.0937499999999 358.40625C323.2187499999999 347.1875 319.1249999999999 334.625 319.1249999999999 321.53125C319.1249999999999 299.4375 330.9999999999999 281.7187499999999 345.9374999999999 267.125L311.7499999999999 266.65625C202.1562499999999 266.65625 117.7812499999999 196.90625 117.7812499999999 124.4687499999999C117.7812499999999 53.1249999999999 210.2812499999999 8.5937499999999 319.9374999999999 8.5937499999999C444.9374999999999 8.5937499999999 513.9374999999999 79.4999999999998 513.9374999999999 150.7812499999999C513.9374999999999 207.96875 497.0312499999999 242.2499999999999 444.8749999999999 279.0312499999999H444.9375zM339.4375 377.9375C288.5625 379.46875 240.2500000000001 434.8750000000001 231.4375000000001 501.625C222.71875 568.4375 256.78125 619.5625 307.6875 618C358.5625 616.5 406.90625 562.90625 415.6875 496.0625C424.5 429.28125 390.3125 376.40625 339.4375 377.9375L339.4375 377.9375zM319.5 32.09375C243.78125 32.09375 189.03125 80 189.03125 137.5C189.03125 194.125 256.9375000000001 241 332.59375 240.25C350.34375 240 366.84375 237.21875 381.78125 232.34375C422.875 203.8125 452.4687500000001 187.625 460.7812500000001 154.96875L463.1875000000001 134.6875C463.15625 77.09375 426.0625 32.09375 319.5 32.09375z" />
    <glyph glyph-name="home"
      unicode="&#xF12A;"
      horiz-adv-x="1000" d=" M1000 284.4375L500 728.875L0 284.4375L166.65625 284.4375L166.65625 -48.90625L388.875 -48.90625L388.875 247.28125L611.125 247.28125L611.125 -48.90625L833.34375 -48.90625L833.34375 284.4375z" />
    <glyph glyph-name="loading"
      unicode="&#xF12B;"
      horiz-adv-x="1000" d=" M227.9375 403.375H0V276.75H227.9375V403.375zM436.78125 -160H563.28125V67.875H436.78125V-160zM772.03125 403.375V276.75H1000V403.375H772.03125zM436.78125 612.09375H563.28125V840H436.78125V612.09375zM101.78125 31.1875L191.28125 -58.3125000000001L352.34375 102.8124999999999L262.8437500000001 192.3124999999999L101.78125 31.1875zM101.78125 648.8125L262.84375 487.75L352.34375 577.1875L191.28125 738.3125L101.78125 648.8125zM647.78125 102.90625L808.78125 -58.21875L898.34375 31.1875000000001L737.15625 192.3125L647.78125 102.90625z" />
    <glyph glyph-name="magazine"
      unicode="&#xF12C;"
      horiz-adv-x="1000" d=" M985.778809375 683.75C661.9262687500001 683.75 500 552.09716875 500 552.09716875S338.088990625 683.75 14.221190625 683.75C9.521484375 683.75 4.76074375 683.71948125 0 683.658446875V71.964109375C4.592896875 72.0251437500001 9.12475625 72.0556624999999 13.671875 72.0556624999999C337.86010625 72.025146875 500 -66.2194812499999 500 -66.2194812499999S662.07885625 72.0556656250001 986.328125 72.0556656250001C990.844725 72.0556656250001 995.4223625 72.025146875 1000 71.9641125000001V683.658446875C995.208740625 683.71948125 990.509034375 683.75 985.778809375 683.75zM83.328246875 598.1634531249999C323.822021875 582.3400875 446.5942375 488.08655 447.433471875 487.445678125L458.328246875 478.778684375V57.07153125C380.4016125000001 96.74438125 255.6304937500001 143.16161875 83.328246875 153.3544906249999V598.1634531249999zM916.65649375 153.3544937500001C744.354246875 143.161621875 619.5678718749999 96.7443875 541.65649375 57.0715343750001V478.85498125L552.03246875 487.003175C553.3447249999999 488.040771875 676.177975 582.3400875 916.65649375 598.1634531249999V153.3544937500001z" />
    <glyph glyph-name="minus_circle"
      unicode="&#xF12D;"
      horiz-adv-x="1000" d=" M500 840C223.875 840 0 616.09375 0 340S223.875 -160 500 -160C776.15625 -160 1000 63.90625 1000 340S776.15625 840 500 840zM791.65625 256.65625H208.34375V423.3125H791.6875000000001V256.65625z" />
    <glyph glyph-name="pinterest"
      unicode="&#xF12E;"
      horiz-adv-x="1000" d=" M535.5834968749999 840C262.6953125 840 125 644.3365468750001 125 481.174315625C125 382.3889156250001 162.384034375 294.498290625 242.752075 261.7224125C255.859375 256.35131875 267.578125 261.5087875 271.484375 276.0961906250001C274.139403125 286.197509375 280.410765625 311.588134375 283.203125 322.20825C286.972046875 336.582028125 285.5834968750001 341.678465625 274.8413093750001 354.221190625C251.815796875 381.50390625 237.03003125 416.873778125 237.03003125 466.892090625C237.03003125 612.033690625 345.58105625 741.9928 519.805909375 741.9928C673.9807156249999 741.9928 758.7890625 647.678225 758.7890625 521.85425C758.7890625 356.235353125 685.546875 216.464846875 576.751709375 216.464846875C516.6015625 216.464846875 471.55761875 266.1169468750001 486.0534656249999 327.0910687500001C503.3569312499999 399.8449750000001 536.712646875 478.3972218750001 536.712646875 530.917971875C536.712646875 577.9150406250001 511.4440906249999 617.13013125 459.259034375 617.13013125C397.8881843750001 617.13013125 348.51074375 553.592534375 348.51074375 468.479009375C348.51074375 414.2797906250001 366.76025625 377.5976625 366.76025625 377.5976625S303.9855968750001 111.2707531250001 292.96875 64.609375C270.9350593750001 -28.31665 289.627075 -142.2387687500001 291.152953125 -153.6828625C292.129515625 -160.5188 300.9338375000001 -162.1057125000001 304.8400875000001 -157.009278125C310.546875 -149.6240250000001 383.666990625 -59.2309593750001 408.6303718750001 30.979003125C415.588378125 56.4916968749999 448.94409375 188.9074687499999 448.94409375 188.9074687499999C468.902590625 150.8215312499999 527.2216812500001 117.2521937499998 589.2944343749999 117.2521937499998C773.8647468749999 117.2521937499998 899.13940625 285.5871562499999 899.13940625 510.9594687499999C899.139403125 681.30859375 754.8828125 840 535.5834968749999 840z" />
    <glyph glyph-name="plus_circle"
      unicode="&#xF12F;"
      horiz-adv-x="1000" d=" M500 840C223.8125 840 0 616.09375 0 340S223.8125 -160 500 -160C776.15625 -160 1000 63.90625 1000 340S776.15625 840 500 840zM833.34375 256.65625H583.34375V6.65625H416.6875000000001V256.65625H166.6875000000001V423.3125H416.6875000000001V673.3125H583.34375V423.3125H833.34375V256.65625z" />
    <glyph glyph-name="search"
      unicode="&#xF130;"
      horiz-adv-x="1000" d=" M720.09375 716.5C555.34375 881.1875 288.28125 881.1875 123.5 716.5C-41.1875 551.75 -41.1875 284.71875 123.5 120.0625000000001C265.53125 -22.1874999999999 483.6562499999999 -41.3437499999999 646.6875 61.7500000000001L868.375 -160L1000 -28.5L778.3125 193.1875C881.40625 356.21875 862.1875 574.34375 720.09375 716.5zM627.5625 212.5625C513.8750000000001 99 329.6562500000001 99 216.1562500000001 212.5625C102.4375000000001 326.125 102.4375000000001 510.34375 216.1562500000001 623.90625C329.6562500000001 737.65625 513.8750000000001 737.65625 627.5625 623.90625C741.09375 510.34375 741.09375 326.125 627.5625 212.5625z" />
    <glyph glyph-name="share"
      unicode="&#xF131;"
      horiz-adv-x="1000" d=" M816.131590625 204.4104C757.659909375 204.4104 706.32934375 176.853028125 672.698971875 134.58618125L360.3515625 292.850340625C364.4104000000001 307.926025 367.3400875000001 323.551025 367.3400875000001 340C367.3400875000001 357.91381875 363.983153125 374.8205562500001 359.100340625 391.055909375L669.7692843750001 548.6486843749999C703.39965625 504.3371593749999 756.13403125 475.68115625 816.1315906250001 475.68115625C917.96875 475.681153125 1000 557.071534375 1000 657.7948C1000 758.3807375 917.96875 840 816.131590625 840C714.84375 840 632.537840625 758.3807375 632.537840625 657.7948C632.537840625 641.345825 635.467528125 625.720825 639.495846875 610.6604L327.42309375 452.365721875C293.792721875 494.57153125 242.3400875 522.189940625 183.731078125 522.189940625C82.168578125 522.189940625 0 440.5859375 0 340C0 239.261475 82.168578125 157.8100593749999 183.731078125 157.8100593749999C243.865965625 157.8100593749999 296.600340625 186.8322749999999 330.078125 231.0522468749999L640.899659375 73.459471875C635.894778125 57.0715312499999 632.3852562500001 40.1342781249999 632.3852562500001 22.189940625C632.3852531250001 -78.5180656250001 714.84375 -160 816.131590625 -160C917.694090625 -160 1000 -78.5180656250001 1000 22.1899406250001C1000 122.7758781250001 917.694090625 204.4104 816.131590625 204.4104L816.131590625 204.4104zM816.131590625 204.4104" />
    <glyph glyph-name="star-outline"
      unicode="&#xF132;"
      horiz-adv-x="1000" d=" M821.868896875 -128.75L500.48828125 95.7983406249999L178.1921375 -128.505859375L304.443359375 235.8129875000001L0 463.16894375H381.45446875L500.64086875 808.75L618.560790625 463.16894375H1000L695.556640625 235.8129875000001L821.868896875 -128.75zM158.187865625 410.632934375L366.7144781250001 254.886475L280.8074968750001 6.9311531249999L500.54931875 159.885253125L719.1162125 7.1447749999999L633.2702656249999 254.8864749999999L841.8273937499998 410.6329343749998H580.8715843749999L500.3662124999999 646.6101062499998L418.9910906249999 410.6329343749998H158.187865625z" />
    <glyph glyph-name="star"
      unicode="&#xF133;"
      horiz-adv-x="1000" d=" M1000 471.28125L695.3125 228.3125000000001L821.34375 -160L500.625 79.375L178.71875 -160L304.7187500000001 228.3125000000001L0 471.28125H381.46875L500.5625 840L618.53125 471.28125H1000z" />
    <glyph glyph-name="stars"
      unicode="&#xF134;"
      horiz-adv-x="6000" d=" M1000 471.28125L695.3437499999999 228.3125000000001L821.34375 -160L500.6250000000001 79.375L178.71875 -160L304.78125 228.3125000000001L0.03125 471.2812500000001H381.5L500.625 840L618.53125 471.28125H1000z M2062.5 471.28125L1757.875 228.3125000000001L1883.78125 -160L1563.09375 79.375L1241.21875 -160L1367.28125 228.3125000000001L1062.59375 471.2812500000001H1444.0625L1563.125 840L1681.0312500000002 471.28125H2062.5z M3125 471.28125L2820.3125 228.3125000000001L2946.21875 -160L2625.53125 79.375L2303.71875 -160L2429.7187499999995 228.3125000000001L2125.0625 471.2812500000001H2506.46875L2625.5625 840L2743.53125 471.28125H3125z M4187.5 471.28125L3882.8125 228.3125000000001L4008.78125 -160L3688.125000000001 79.375L3366.21875 -160L3492.1875 228.3125000000001L3187.5625 471.2812500000001H3569L3688.15625 840L3806 471.28125H4187.5z M5250 471.28125L4945.3125 228.3125000000001L5071.15625 -160L4750.53125 79.375L4428.78125 -160L4554.6875 228.3125000000001L4250 471.2812500000001H4631.40625L4750.5625 840L4868.59375 471.28125H5250z" />
    <glyph glyph-name="tech-spec"
      unicode="&#xF135;"
      horiz-adv-x="1000" d=" M624.5625 148.0625C624.5625 114.1487645807029 652.0550145807028 86.65625 685.96875 86.65625C719.8824854192973 86.65625 747.375 114.1487645807029 747.375 148.0625C747.375 181.9762354192973 719.8824854192973 209.46875 685.96875 209.46875C652.0550145807028 209.46875 624.5625 181.9762354192973 624.5625 148.0625z M500 840C223.875 840 0 616.09375 0 340S223.875 -160 500 -160C776.15625 -160 1000 63.90625 1000 340S776.15625 840 500 840zM778.03125 67.875L755.0312499999999 44.7500000000001C724.7499999999999 14.5937500000001 675.21875 14.4687500000001 645.0624999999999 44.7500000000001L457.6249999999998 232.1562500000001C427.5312499999999 262.4375000000001 450.3124999999999 239.5312500000001 450.3124999999999 239.5312500000001C450.3124999999999 239.6250000000001 486.3124999999998 203.6250000000001 456.0937499999998 233.8125000000001L395.6562499999999 294.0937500000001C324.1874999999999 271.2187500000001 242.9687499999999 287.25 186.1874999999999 344.0000000000001C129.4687499999999 400.7500000000001 134.0937499999999 515.15625 134.0937499999999 515.15625C135.0625 536.5625 148.21875 541.65625 163.28125 526.5625L238.5 451.28125C253.5625 436.1875 278.46875 436.1875 293.53125 451.28125L371.53125 529.375C386.5625 544.46875 386.5625 569.25 371.53125 584.3125L296.28125 659.5625C281.1875 674.625 286.28125 687.78125 307.6875 688.6875C307.6875 688.6875 421.96875 693.59375 478.90625 636.59375C535.59375 579.875 551.5 498.6562500000001 528.6562499999999 427.1875000000001L589.09375 366.8125C619.375 336.65625 608.1875 347.9375000000001 638.34375 317.59375L778 177.84375C808.3125 147.5625 808.3125 98.03125 778.03125 67.875z" />
    <glyph glyph-name="tick"
      unicode="&#xF136;"
      horiz-adv-x="1000" d=" M835.75 746.25L356.84375 264.28125L164.25 458.0625L0 292.84375L356.84375 -66.25L1000 580.96875z" />
    <glyph glyph-name="twitter"
      unicode="&#xF137;"
      horiz-adv-x="1000" d=" M999.90625 645.34375C963.1875 629.28125 923.71875 618.40625 882.1875 613.5C924.5 638.46875 957.03125 678.125 972.40625 725.25C932.6562500000002 702.09375 888.7812500000001 685.34375 842.0000000000001 676.28125C804.6875 715.53125 751.40625 740 692.34375 740C579.0625 740 487.1250000000001 649.53125 487.1250000000001 538.09375C487.1250000000001 522.3125 489.0000000000001 506.8437499999999 492.5000000000001 492.0312499999999C321.96875 500.5 170.8125 580.875 69.625 703.0625C51.96875 673.25 41.84375 638.53125 41.84375 601.5C41.84375 531.46875 78.03125 469.65625 133.09375 433.4375C99.46875 434.46875 67.78125 443.5625 40.1875 458.6875V456.125C40.1875 358.28125 110.96875 276.6875 204.78125 258.15625C187.59375 253.5625 169.46875 251 150.75 251C137.5625 251 124.71875 252.25 112.125 254.59375C138.21875 174.40625 214.03125 116.03125 303.78125 114.375C233.5625 60.15625 145.15625 27.9375000000001 49 27.9375000000001C32.46875 27.9375000000001 16.09375 28.8437500000001 0.0625 30.7500000000001C90.84375 -26.5625 198.71875 -60 314.5625 -60C691.9375000000001 -60 898.1874999999999 247.7187499999999 898.1874999999999 514.625L897.6562499999999 540.6875C937.78125 569.21875 972.5 604.75 1000 645.25L999.90625 645.34375z" />
    <glyph glyph-name="website"
      unicode="&#xF138;"
      horiz-adv-x="1000" d=" M1000 339.96948125C1000 614.658203125 777.2827156249999 838.2147218749999 502.914428125 839.832153125C502.2735593749999 839.832153125 501.663209375 840 501.0223375 840V839.908446875C500.7171625 839.908446875 500.3509500000001 839.96948125 499.984740625 839.96948125C499.6795656250001 839.96948125 499.374390625 839.908446875 499.038696875 839.908446875V840C498.397828125 840 497.81799375 839.832153125 497.207640625 839.832153125C222.7630625 838.27575625 0 614.7192375 0 339.96948125C0 65.0366187499999 223.159790625 -158.7182625 497.879028125 -159.8779312500001C498.306275 -159.8779312500001 498.64196875 -160 499.038696875 -160V-159.9389656249999C499.374390625 -159.9389656249999 499.679565625 -160 499.984740625 -160C500.350953125 -160 500.7171625 -159.9389656249999 501.0223375 -159.9389656249999V-160C501.419065625 -160 501.8157937500001 -159.8779312500001 502.212521875 -159.8779312500001C776.9165031250001 -158.626709375 1000 65.0366218749999 1000 339.96948125zM529.4036875 -96.1572249999999V75.2905281249999H662.5366218749999C630.4931624999999 -15.224609375 583.0078125 -79.1589343749999 529.4036875 -96.1572249999999zM337.4786375 75.2905281249999H470.5963125V-96.1267093750001C416.976928125 -79.0979 369.52209375 -15.1635749999999 337.4786375 75.2905281249999zM60.806275 300.5712875H237.319946875C239.6698 241.3671875 247.14660625 185.3369124999999 259.01794375 134.0979H110.0921625C83.34350625 184.6044937500001 66.14685 240.87890625 60.806275 300.5712875zM470.5963125 776.14196875V584.720459375H330.520628125C362.4115 685.8557125 413.070678125 757.84668125 470.5963125 776.14196875zM669.4946281250001 584.720459375H529.4036875V776.172484375C586.9140625 757.907715625 637.6342781249999 685.88623125 669.4946281250001 584.720459375zM940.185546875 359.3786625H763.2446281250001C762.084959375 418.30810625 755.98144375 474.3078625 745.4223625000001 525.88256875H899.53613125C923.33984375 474.857178125 937.62206875 418.674315625 940.185546875 359.3786625zM704.4677750000001 359.3786625H529.4036875V525.88256875H684.9365250000001C696.3500968750001 474.6130375 703.1860343750001 418.3081062500001 704.4677750000001 359.3786625zM470.5963125 525.88256875V359.3786625H295.578003125C296.859740625 418.30810625 303.695678125 474.6130375 315.078734375 525.88256875H470.5963125zM236.801146875 359.3786625H59.79919375C62.408446875 418.674315625 76.644896875 474.857178125 100.479125 525.88256875H254.6539312500001C244.09485 474.3078625 237.930296875 418.3081062500001 236.801146875 359.3786625zM296.066284375 300.5712875H470.5963125V134.0979H319.5953375000001C306.838990625 184.818115625 298.660278125 241.2451187500001 296.066284375 300.5712875zM529.4036875 134.0979V300.5712875H703.918459375C701.4160187499999 241.245115625 693.176271875 184.8181125 680.4199249999999 134.0979H529.4036875zM762.6953125 300.5712875H939.14795C933.898925 240.87890625 916.6870125 184.6044906249999 889.892578125 134.0979H741.0888656249999C752.9296875 185.3369124999999 760.4370124999999 241.3671875 762.6953125 300.5712875zM866.7602531250001 584.720459375H731.0791C711.303709375 652.94250625 683.471678125 711.01745625 649.780271875 754.4134531249999C738.9526374999999 722.080078125 814.94140625 662.250365625 866.7602531250001 584.720459375zM350.234984375 754.413453125C316.574096875 711.047975 288.711546875 652.973021875 268.997190625 584.720459375H133.19396875C185.1348875 662.280884375 261.12365625 722.110596875 350.234984375 754.413453125zM147.90344375 75.2905281249999H275.31433125C294.54040625 15.6896968749999 319.961546875 -35.396728125 350.265503125 -74.459228125C269.0582281250001 -44.9792468749999 199.020384375 7.4194343749999 147.90344375 75.2905281249999zM649.7802750000001 -74.459228125C680.0537125000001 -35.396728125 705.505371875 15.750734375 724.7314468750001 75.2905281249999H852.1118187500001C801.025390625 7.48046875 731.0180656250001 -44.9792468749999 649.7802750000001 -74.459228125z" />
    <glyph glyph-name="whats-app"
      unicode="&#xF139;"
      horiz-adv-x="1000" d=" M509.0625 840C237.96875 840 18.1875 621.9375 18.1875 352.875C18.1875 260.8437500000001 43.96875 174.75 88.625 101.34375L0 -160L271.78125 -73.625C342.09375 -112.125 422.96875 -134.21875 509.0625 -134.21875C780.21875 -134.21875 1000 83.9374999999999 1000 352.90625C1000 621.9375 780.21875 840 509.0625 840zM509.0625 -52.5625C426.09375 -52.5625 348.78125 -27.9375 284.25 14.40625L127.25 -35.40625L178.25 115.1874999999999C129.3125 182.0312499999999 100.4375 264.1249999999999 100.4375 352.8749999999999C100.4375 576.5 283.75 758.4687499999999 509.09375 758.4687499999999C734.5312500000001 758.4687499999999 917.78125 576.4999999999999 917.78125 352.8749999999999C917.75 129.28125 734.5 -52.5625 509.0625 -52.5625zM739.25 242.1875C726.90625 248.8437500000001 666.5625 281.1875000000001 655.15625 285.84375C643.78125 290.40625 635.53125 292.78125 626.625 280.6249999999999C617.90625 268.5312499999999 592.78125 241.4687499999999 585.2499999999999 233.3749999999999C577.5937499999999 225.2812499999999 570.2187499999999 224.59375 557.9062499999999 231.3125C545.5625 237.9999999999999 505.7499999999999 252.59375 459.5312499999999 296.8125C423.53125 331.09375 399.84375 372.78125 393.09375 385.4375C386.1875 398.15625 393.03125 404.65625 399.53125 410.625C405.375 416 412.5625 424.65625 419.15625 431.71875C425.65625 438.71875 428 443.78125 432.5 452C437 460.125 435.15625 467.4375 432.25 473.84375C429.375 480.15625 406.65625 542.28125 397.09375 567.5625C387.65625 592.8125 377.0625 589.0625 369.71875 589.3125C362.4375 589.59375 354.125 591 345.71875 591.25C337.3125 591.5 323.71875 588.90625 311.71875 576.9375C299.78125 564.90625 266.2812499999999 536.09375 263.9375 474.8437500000001C261.59375 413.6875 304.28125 352.90625 310.21875 344.4375000000001C316.15625 335.8750000000001 391.71875 203.2500000000001 517.25 148.78125C642.78125 94.25 643.40625 110.84375 666.4375 112C689.5 113.25 741.6875 139.34375 753.1875 168.03125C764.8125 196.6875 765.78125 221.53125 762.875 226.84375C759.75 232.15625 751.53125 235.5625 739.25 242.1875z" />
  </font>
</defs>
</svg>
