<?xml version="1.0" encoding="utf-8"?>
<!-- Generator: Adobe Illustrator 15.1.0, SVG Export Plug-In  -->
<!DOCTYPE svg PUBLIC "-//W3C//DTD SVG 1.1//EN" "http://www.w3.org/Graphics/SVG/1.1/DTD/svg11.dtd" [
	<!ENTITY ns_flows "http://ns.adobe.com/Flows/1.0/">
]>
<svg version="1.1"
	 xmlns="http://www.w3.org/2000/svg" xmlns:xlink="http://www.w3.org/1999/xlink" xmlns:a="http://ns.adobe.com/AdobeSVGViewerExtensions/3.0/"
	 x="0px" y="0px" width="160px" height="90px" viewBox="0 0 160 90" overflow="visible" enable-background="new 0 0 160 90"
	 xml:space="preserve">
<defs>
</defs>
<rect fill="#DBDDDE" width="160" height="90"/>
<path fill="#FFFFFF" d="M42.1245117,49.6132812c-0.0947266,0.4375-0.2973633,0.8476562-0.605957,1.2265625
	s-0.7553711,0.7011719-1.3393555,0.9648438c-0.5849609,0.2636719-1.3647461,0.3964844-2.3447266,0.3964844
	c-0.4179688,0-0.8432617-0.0546875-1.2797852-0.1582031c-0.434082-0.1035156-0.8295898-0.265625-1.1875-0.484375
	s-0.6538086-0.5-0.8891602-0.8417969c-0.237793-0.3476562-0.3720703-0.7597656-0.40625-1.2402344h2.3271484
	c0.1103516,0.4375,0.3237305,0.7421875,0.6435547,0.9101562c0.3178711,0.1699219,0.6879883,0.25,1.105957,0.25
	c0.6601562,0,1.1420898-0.1953125,1.4438477-0.5917969c0.3012695-0.3964844,0.4477539-0.9003906,0.4375-1.5058594v-1.125h-0.0327148
	c-0.2519531,0.453125-0.6118164,0.7871094-1.0805664,1.0058594c-0.46875,0.2167969-0.9633789,0.3222656-1.4794922,0.3222656
	c-0.640625,0-1.190918-0.1132812-1.6533203-0.3378906c-0.4624023-0.2285156-0.8422852-0.5351562-1.140625-0.9238281
	c-0.2963867-0.3925781-0.5146484-0.8457031-0.652832-1.3710938c-0.1381836-0.5195312-0.2060547-1.0722656-0.2060547-1.65625
	c0-0.546875,0.0800781-1.0820312,0.2407227-1.5878906c0.1601562-0.5117188,0.394043-0.9648438,0.7021484-1.3554688
	c0.3081055-0.3925781,0.6904297-0.703125,1.1464844-0.9296875c0.4584961-0.2324219,0.9853516-0.3496094,1.5800781-0.3496094
	c0.5620117,0,1.0541992,0.1054688,1.4790039,0.3144531c0.4243164,0.2128906,0.7783203,0.5664062,1.0644531,1.0625h0.0327148
	V40.46875h2.234375v7.9785156C42.2641602,48.7851562,42.2163086,49.1738281,42.1245117,49.6132812 M38.9091797,46.7675781
	c0.2519531-0.1308594,0.4614258-0.3046875,0.625-0.5253906c0.1660156-0.21875,0.2900391-0.46875,0.371582-0.7460938
	c0.081543-0.2792969,0.1240234-0.5722656,0.1240234-0.8789062c0-0.3515625-0.0336914-0.6796875-0.0996094-0.9902344
	c-0.065918-0.3164062-0.1757812-0.5917969-0.3300781-0.8300781c-0.1542969-0.2441406-0.3574219-0.4355469-0.6083984-0.5761719
	c-0.2543945-0.1425781-0.5712891-0.2148438-0.9545898-0.2148438c-0.3325195,0-0.6137695,0.0683594-0.8491211,0.1953125
	c-0.237793,0.1367188-0.4355469,0.3125-0.5927734,0.5371094C36.4355469,42.9609375,36.3193359,43.21875,36.25,43.5097656
	c-0.0727539,0.2871094-0.1083984,0.5917969-0.1083984,0.9101562c0,0.3085938,0.0302734,0.6132812,0.0898438,0.9101562
	c0.0595703,0.3046875,0.1655273,0.5722656,0.3139648,0.8164062c0.1474609,0.2382812,0.3432617,0.4394531,0.5844727,0.5898438
	c0.2421875,0.1503906,0.543457,0.2304688,0.9072266,0.2304688C38.3637695,46.9667969,38.6557617,46.9003906,38.9091797,46.7675781"
	/>
<path fill="#FFFFFF" d="M43.21875,41.7128906c0.2416992-0.3632812,0.5483398-0.65625,0.9228516-0.8691406
	c0.3730469-0.2246094,0.7949219-0.3789062,1.2602539-0.46875c0.4672852-0.0976562,0.9370117-0.1445312,1.4106445-0.1445312
	c0.4267578,0,0.8603516,0.03125,1.2998047,0.0898438c0.4389648,0.0605469,0.840332,0.1796875,1.2045898,0.3554688
	c0.3618164,0.1757812,0.6591797,0.421875,0.8881836,0.7324219c0.2294922,0.3164062,0.3461914,0.7285156,0.3461914,1.2460938
	v4.4335938c0,0.3847656,0.0219727,0.7578125,0.065918,1.1035156c0.0439453,0.3574219,0.121582,0.6210938,0.2314453,0.796875
	h-2.3950195c-0.0444336-0.1367188-0.0805664-0.2714844-0.1088867-0.4082031
	c-0.0283203-0.1425781-0.0458984-0.2792969-0.0585938-0.4257812c-0.3730469,0.3867188-0.8115234,0.6601562-1.3164062,0.8125
	c-0.5019531,0.15625-1.019043,0.2324219-1.5454102,0.2324219c-0.4047852,0-0.7836914-0.046875-1.1323242-0.1484375
	c-0.3510742-0.0996094-0.6582031-0.25-0.9213867-0.4628906c-0.2636719-0.2070312-0.46875-0.4726562-0.6162109-0.7929688
	c-0.1499023-0.3144531-0.2236328-0.6933594-0.2236328-1.1328125c0-0.484375,0.0854492-0.8867188,0.2558594-1.1992188
	c0.1694336-0.3105469,0.3891602-0.5605469,0.6582031-0.75c0.2695312-0.1875,0.5771484-0.3242188,0.9228516-0.4199219
	c0.3447266-0.09375,0.6943359-0.1679688,1.0454102-0.2226562c0.3486328-0.0566406,0.6967773-0.0996094,1.0361328-0.1328125
	c0.3413086-0.03125,0.6430664-0.0839844,0.9067383-0.1464844c0.2626953-0.0683594,0.4702148-0.1640625,0.6240234-0.2910156
	c0.1538086-0.1289062,0.2255859-0.3105469,0.2133789-0.5527344c0-0.2539062-0.0400391-0.4550781-0.1206055-0.6035156
	c-0.0810547-0.1484375-0.1904297-0.2636719-0.3266602-0.3476562c-0.1347656-0.078125-0.2939453-0.1347656-0.4716797-0.1640625
	c-0.1801758-0.0273438-0.3725586-0.0410156-0.5786133-0.0410156c-0.4550781,0-0.8139648,0.0996094-1.0756836,0.2988281
	c-0.2617188,0.1953125-0.4121094,0.5292969-0.4550781,0.9863281h-2.3579102
	C42.8388672,42.53125,42.9765625,42.0761719,43.21875,41.7128906 M47.8256836,45.0078125
	c-0.1469727,0.0488281-0.3061523,0.0898438-0.4750977,0.1210938c-0.1694336,0.0371094-0.3461914,0.0605469-0.5302734,0.0839844
	c-0.1875,0.0253906-0.3720703,0.0546875-0.5566406,0.0839844c-0.1748047,0.0332031-0.3457031,0.078125-0.5170898,0.1328125
	c-0.1689453,0.0527344-0.315918,0.1308594-0.4414062,0.2226562c-0.1245117,0.0917969-0.2260742,0.2089844-0.3017578,0.3515625
	c-0.078125,0.1445312-0.1147461,0.3242188-0.1147461,0.5449219c0,0.2128906,0.0366211,0.3886719,0.1147461,0.5273438
	c0.0756836,0.1445312,0.1787109,0.2597656,0.3100586,0.3378906c0.1308594,0.0839844,0.2841797,0.1425781,0.4594727,0.1757812
	c0.1748047,0.03125,0.3535156,0.0507812,0.5405273,0.0507812c0.4570312,0,0.8105469-0.0800781,1.0634766-0.2324219
	c0.25-0.1542969,0.4350586-0.3359375,0.5561523-0.5527344c0.1196289-0.2109375,0.1928711-0.4296875,0.2202148-0.6503906
	c0.0283203-0.21875,0.0400391-0.3945312,0.0400391-0.5273438v-0.875
	C48.0961914,44.890625,47.9731445,44.9550781,47.8256836,45.0078125"/>
<path fill="#FFFFFF" d="M53.3920898,40.453125v1.15625h0.0341797c0.309082-0.4394531,0.6826172-0.7753906,1.1201172-1.0136719
	c0.4360352-0.2441406,0.9379883-0.3652344,1.5024414-0.3652344c0.5419922,0,1.0351562,0.1054688,1.4858398,0.3125
	c0.4467773,0.2070312,0.7866211,0.5722656,1.0195312,1.0976562c0.2514648-0.3691406,0.5947266-0.7011719,1.0273438-0.9824219
	c0.4331055-0.2832031,0.9453125-0.4257812,1.5380859-0.4257812c0.4511719,0,0.8676758,0.0546875,1.25,0.1640625
	c0.3828125,0.1113281,0.7124023,0.2871094,0.987793,0.5273438c0.2739258,0.2441406,0.4873047,0.5566406,0.6411133,0.9492188
	c0.1533203,0.3867188,0.2314453,0.8613281,0.2314453,1.4082031v5.7070312h-2.3579102v-4.8398438
	c0-0.2851562-0.012207-0.5566406-0.0307617-0.8105469c-0.0249023-0.25-0.0849609-0.4707031-0.1811523-0.6582031
	c-0.097168-0.1894531-0.2416992-0.3378906-0.4321289-0.4433594c-0.1904297-0.1132812-0.4487305-0.1699219-0.7763672-0.1699219
	c-0.3242188,0-0.5878906,0.0664062-0.7905273,0.1914062c-0.2001953,0.1269531-0.3588867,0.2910156-0.4746094,0.4941406
	c-0.1118164,0.2050781-0.1870117,0.4375-0.2275391,0.6933594c-0.0371094,0.2597656-0.0546875,0.5234375-0.0546875,0.7871094
	v4.7558594h-2.3583984v-4.7890625c0-0.2558594-0.0053711-0.5058594-0.0180664-0.7539062
	c-0.0092773-0.2480469-0.0585938-0.4746094-0.1396484-0.6816406c-0.0820312-0.2128906-0.2192383-0.3789062-0.4116211-0.5078125
	c-0.1914062-0.1230469-0.4750977-0.1894531-0.8486328-0.1894531c-0.1098633,0-0.2558594,0.0273438-0.4350586,0.0742188
	c-0.1826172,0.0527344-0.3579102,0.1445312-0.527832,0.2851562c-0.1723633,0.1367188-0.3178711,0.3320312-0.4379883,0.5898438
	c-0.1220703,0.2617188-0.1811523,0.5996094-0.1811523,1.015625v4.9570312h-2.3579102V40.453125H53.3920898z"/>
<path fill="#FFFFFF" d="M67.3364258,46.9472656c0.3525391,0.3417969,0.8583984,0.5097656,1.5180664,0.5097656
	c0.4731445,0,0.8818359-0.1191406,1.2211914-0.3535156c0.3422852-0.2363281,0.550293-0.4863281,0.6279297-0.75h2.0610352
	c-0.3295898,1.0234375-0.8349609,1.75-1.5170898,2.1875c-0.6821289,0.4394531-1.5078125,0.6582031-2.4755859,0.6582031
	c-0.671875,0-1.2753906-0.1054688-1.8164062-0.3203125c-0.5410156-0.2128906-0.9975586-0.5175781-1.375-0.9140625
	c-0.3759766-0.3945312-0.6669922-0.8710938-0.871582-1.4179688C64.5039062,46,64.4013672,45.390625,64.4013672,44.7324219
	c0-0.6367188,0.1069336-1.2304688,0.3154297-1.7792969c0.2109375-0.5507812,0.5102539-1.0253906,0.8974609-1.4277344
	c0.3881836-0.3984375,0.8491211-0.7167969,1.3833008-0.9453125c0.534668-0.2324219,1.1245117-0.3476562,1.7744141-0.3476562
	c0.7260742,0,1.3603516,0.1425781,1.8979492,0.421875c0.5395508,0.28125,0.9814453,0.6601562,1.3266602,1.1328125
	c0.3486328,0.4726562,0.5986328,1.0195312,0.7524414,1.6230469c0.1538086,0.6054688,0.2104492,1.2421875,0.1660156,1.9042969
	h-6.1557617C66.7924805,46.0644531,66.9848633,46.609375,67.3364258,46.9472656 M69.9863281,42.4648438
	c-0.2822266-0.3027344-0.7080078-0.4589844-1.2792969-0.4589844c-0.3745117,0-0.684082,0.0625-0.9321289,0.1894531
	c-0.2485352,0.1289062-0.4467773,0.2832031-0.5942383,0.46875c-0.1499023,0.1875-0.253418,0.3828125-0.3139648,0.5898438
	c-0.0595703,0.2070312-0.0961914,0.3945312-0.1074219,0.5566406h3.8129883
	C70.4619141,43.2207031,70.2651367,42.7714844,69.9863281,42.4648438"/>
<path fill="#FFFFFF" d="M75.0507812,46.8535156c0.105957,0.1796875,0.2387695,0.3339844,0.4018555,0.4453125
	c0.1625977,0.1152344,0.3515625,0.2011719,0.5644531,0.2578125c0.2119141,0.0566406,0.4331055,0.0839844,0.6640625,0.0839844
	c0.1630859,0,0.3359375-0.0214844,0.5141602-0.0566406c0.1811523-0.0410156,0.3447266-0.0996094,0.4912109-0.1835938
	c0.1469727-0.0800781,0.2700195-0.1933594,0.3671875-0.328125c0.1000977-0.1347656,0.1499023-0.3105469,0.1499023-0.5214844
	c0-0.3515625-0.2338867-0.609375-0.7011719-0.7851562c-0.4677734-0.1757812-1.1186523-0.3515625-1.9541016-0.5273438
	c-0.3393555-0.0800781-0.6738281-0.1699219-0.9975586-0.2734375c-0.3232422-0.1035156-0.6132812-0.2382812-0.8642578-0.4101562
	c-0.2543945-0.171875-0.4560547-0.3847656-0.6098633-0.6425781c-0.1538086-0.2558594-0.2314453-0.5742188-0.2314453-0.9492188
	c0-0.546875,0.1083984-0.9980469,0.3217773-1.3496094s0.4975586-0.6230469,0.8491211-0.828125
	c0.3515625-0.203125,0.7480469-0.3476562,1.1870117-0.4316406c0.4399414-0.0800781,0.8911133-0.1210938,1.3535156-0.1210938
	c0.4614258,0,0.9082031,0.0449219,1.3417969,0.1328125s0.8217773,0.2363281,1.1640625,0.4433594
	c0.3383789,0.2109375,0.6230469,0.4902344,0.8486328,0.8339844c0.2260742,0.3476562,0.359375,0.7851562,0.4033203,1.3144531
	h-2.234375c-0.0336914-0.453125-0.2021484-0.7617188-0.5063477-0.921875
	c-0.3056641-0.1621094-0.6655273-0.2441406-1.0800781-0.2441406c-0.1318359,0-0.2719727,0.0117188-0.425293,0.0273438
	c-0.1533203,0.0136719-0.2890625,0.0527344-0.4169922,0.109375c-0.1245117,0.0507812-0.2304688,0.1328125-0.3178711,0.2382812
	c-0.0869141,0.1035156-0.1308594,0.2460938-0.1308594,0.421875c0,0.2070312,0.0751953,0.375,0.2285156,0.5117188
	c0.1533203,0.1269531,0.3520508,0.2382812,0.5991211,0.3222656c0.2470703,0.078125,0.5263672,0.1523438,0.84375,0.2207031
	c0.3188477,0.0644531,0.6411133,0.1347656,0.9663086,0.2109375c0.3413086,0.0820312,0.6708984,0.1738281,0.9936523,0.28125
	c0.3217773,0.1113281,0.6083984,0.2578125,0.8588867,0.4375c0.2504883,0.1835938,0.4541016,0.40625,0.6069336,0.6757812
	c0.152832,0.2734375,0.2290039,0.6054688,0.2290039,1.0019531c0,0.5605469-0.1118164,1.0292969-0.3374023,1.4101562
	c-0.2226562,0.3789062-0.5185547,0.6855469-0.8779297,0.9179688c-0.3618164,0.2265625-0.7729492,0.3886719-1.2397461,0.484375
	c-0.4667969,0.0917969-0.9384766,0.1386719-1.4208984,0.1386719c-0.4916992,0-0.9746094-0.0488281-1.4448242-0.1503906
	c-0.472168-0.0996094-0.890625-0.2636719-1.2568359-0.4960938c-0.3671875-0.2324219-0.6674805-0.5390625-0.902832-0.9199219
	c-0.2348633-0.3828125-0.3642578-0.8574219-0.3862305-1.4296875h2.2338867
	C74.8959961,46.4550781,74.9482422,46.6738281,75.0507812,46.8535156"/>
<path fill="#FFFFFF" d="M82.9140625,40.4570312v1.5878906h0.0351562c0.1123047-0.2636719,0.2646484-0.5078125,0.4501953-0.7324219
	c0.1875-0.2285156,0.4013672-0.4199219,0.6425781-0.5800781c0.2421875-0.1582031,0.5-0.2792969,0.7773438-0.3671875
	c0.2724609-0.0898438,0.5585938-0.1347656,0.8574219-0.1347656c0.1533203,0,0.3232422,0.0292969,0.5117188,0.0859375v2.171875
	c-0.109375-0.0234375-0.2421875-0.0410156-0.3964844-0.0585938c-0.1542969-0.015625-0.3046875-0.0253906-0.4453125-0.0253906
	c-0.4306641,0-0.7929688,0.0722656-1.0908203,0.2167969c-0.2949219,0.1425781-0.5351562,0.3359375-0.7167969,0.5859375
	c-0.1826172,0.2460938-0.3095703,0.5371094-0.3886719,0.8632812c-0.0761719,0.3339844-0.1132812,0.6894531-0.1132812,1.0722656
	v3.8457031h-2.3574219v-8.53125H82.9140625z"/>
<path fill="#FFFFFF" d="M86.1757812,41.7128906c0.2412109-0.3632812,0.5498047-0.65625,0.9228516-0.8691406
	c0.3730469-0.2246094,0.7949219-0.3789062,1.2597656-0.46875c0.4677734-0.0976562,0.9365234-0.1445312,1.4121094-0.1445312
	c0.4267578,0,0.859375,0.03125,1.3017578,0.0898438c0.4394531,0.0605469,0.8378906,0.1796875,1.2021484,0.3554688
	c0.3613281,0.1757812,0.6582031,0.421875,0.8886719,0.7324219c0.2324219,0.3164062,0.3447266,0.7285156,0.3447266,1.2460938
	v4.4335938c0,0.3847656,0.0224609,0.7578125,0.0673828,1.1035156c0.0458984,0.3574219,0.1210938,0.6210938,0.2304688,0.796875
	h-2.3945312c-0.0449219-0.1367188-0.0820312-0.2714844-0.109375-0.4082031
	c-0.0273438-0.1425781-0.046875-0.2792969-0.0585938-0.4257812c-0.3730469,0.3867188-0.8115234,0.6601562-1.3164062,0.8125
	c-0.5029297,0.15625-1.0195312,0.2324219-1.5429688,0.2324219c-0.4072266,0-0.7861328-0.046875-1.1376953-0.1484375
	c-0.3486328-0.0996094-0.6552734-0.25-0.9189453-0.4628906c-0.2636719-0.2070312-0.46875-0.4726562-0.6152344-0.7929688
	c-0.1503906-0.3144531-0.2246094-0.6933594-0.2246094-1.1328125c0-0.4863281,0.0859375-0.8867188,0.2558594-1.1992188
	s0.3886719-0.5605469,0.6582031-0.75c0.2705078-0.1875,0.578125-0.3242188,0.921875-0.421875
	c0.3457031-0.0917969,0.6953125-0.1660156,1.046875-0.2207031c0.3515625-0.0566406,0.6953125-0.0996094,1.0361328-0.1328125
	c0.3417969-0.03125,0.6425781-0.0839844,0.90625-0.1484375c0.2626953-0.0664062,0.4707031-0.1621094,0.6259766-0.2890625
	c0.1523438-0.1289062,0.2246094-0.3105469,0.2148438-0.5527344c0-0.2539062-0.0429688-0.4550781-0.1230469-0.6035156
	c-0.0820312-0.1484375-0.1894531-0.2636719-0.328125-0.3476562c-0.1347656-0.078125-0.2929688-0.1347656-0.4707031-0.1640625
	c-0.1777344-0.0273438-0.3720703-0.0410156-0.578125-0.0410156c-0.4550781,0-0.8144531,0.0996094-1.0761719,0.2988281
	c-0.2587891,0.1953125-0.4111328,0.5292969-0.4550781,0.9863281h-2.3574219
	C85.7988281,42.53125,85.9335938,42.0761719,86.1757812,41.7128906 M90.7832031,45.0078125
	c-0.1464844,0.0488281-0.3037109,0.0898438-0.4726562,0.1210938c-0.171875,0.0371094-0.3476562,0.0605469-0.5332031,0.0839844
	c-0.1845703,0.0253906-0.3720703,0.0546875-0.5566406,0.0839844c-0.1748047,0.0332031-0.3447266,0.078125-0.5146484,0.1328125
	c-0.1708984,0.0527344-0.3183594,0.1308594-0.4433594,0.2226562s-0.2275391,0.2089844-0.3017578,0.3515625
	c-0.0751953,0.1445312-0.1152344,0.3242188-0.1152344,0.5449219c0,0.2128906,0.0400391,0.3886719,0.1152344,0.5273438
	c0.0751953,0.1445312,0.1787109,0.2597656,0.3095703,0.3378906c0.1318359,0.0839844,0.2841797,0.1425781,0.4589844,0.1757812
	c0.1757812,0.03125,0.3544922,0.0507812,0.5410156,0.0507812c0.4570312,0,0.8144531-0.0800781,1.0625-0.2324219
	c0.2519531-0.1542969,0.4375-0.3359375,0.5566406-0.5527344c0.1210938-0.2109375,0.1933594-0.4296875,0.2226562-0.6503906
	c0.0273438-0.21875,0.0410156-0.3945312,0.0410156-0.5273438v-0.875
	C91.0537109,44.890625,90.9326172,44.9550781,90.7832031,45.0078125"/>
<path fill="#FFFFFF" d="M100.1464844,47.8964844c-0.2734375,0.4628906-0.6357422,0.7929688-1.0830078,0.9980469
	c-0.4453125,0.203125-0.9492188,0.3046875-1.5107422,0.3046875c-0.6396484,0-1.2001953-0.1210938-1.6865234-0.3691406
	c-0.484375-0.2480469-0.8828125-0.5820312-1.1972656-1.0078125c-0.3144531-0.421875-0.5498047-0.9082031-0.7109375-1.4550781
	c-0.1591797-0.5527344-0.2402344-1.1230469-0.2402344-1.7148438c0-0.5703125,0.0800781-1.125,0.2402344-1.6601562
	c0.1611328-0.5332031,0.3964844-1.0019531,0.7089844-1.4101562c0.3144531-0.40625,0.7070312-0.7324219,1.1816406-0.9804688
	c0.4716797-0.2480469,1.0224609-0.3710938,1.6503906-0.3710938c0.5058594,0,0.9873047,0.1074219,1.4453125,0.3242188
	c0.4550781,0.2167969,0.8164062,0.53125,1.0810547,0.953125h0.0292969v-4.3066406h2.3583984v11.7871094h-2.2324219v-1.0917969
	H100.1464844L100.1464844,47.8964844z M100.0488281,43.6933594c-0.0673828-0.3242188-0.1806641-0.6074219-0.3417969-0.8554688
	c-0.15625-0.2460938-0.3613281-0.4472656-0.6162109-0.5996094c-0.2519531-0.15625-0.5703125-0.2324219-0.9550781-0.2324219
	c-0.3837891,0-0.7080078,0.0761719-0.9726562,0.2324219c-0.2646484,0.1523438-0.4765625,0.3554688-0.6347656,0.6054688
	c-0.1601562,0.2558594-0.2753906,0.5410156-0.3476562,0.8652344c-0.0693359,0.328125-0.1054688,0.6601562-0.1054688,1.0117188
	c0,0.3320312,0.0380859,0.6640625,0.1152344,0.9902344c0.0761719,0.3261719,0.2011719,0.6191406,0.3710938,0.8789062
	c0.1689453,0.2597656,0.3847656,0.46875,0.6416016,0.6289062c0.2587891,0.1582031,0.5693359,0.2382812,0.9326172,0.2382812
	c0.3847656,0,0.7060547-0.078125,0.9638672-0.2324219c0.2607422-0.1523438,0.4658203-0.3574219,0.6181641-0.6171875
	c0.1503906-0.2558594,0.2636719-0.5488281,0.3310547-0.8789062c0.0644531-0.328125,0.0966797-0.671875,0.0966797-1.0234375
	S100.1132812,44.015625,100.0488281,43.6933594"/>
<path fill="#FFFFFF" d="M103.2451172,41.7128906c0.2402344-0.3632812,0.5488281-0.65625,0.9228516-0.8691406
	c0.3720703-0.2246094,0.7929688-0.3789062,1.2607422-0.46875c0.4677734-0.0976562,0.9375-0.1445312,1.4082031-0.1445312
	c0.4277344,0,0.8623047,0.03125,1.3017578,0.0898438c0.4394531,0.0605469,0.8408203,0.1796875,1.203125,0.3554688
	c0.3642578,0.1757812,0.6591797,0.421875,0.890625,0.7324219c0.2304688,0.3164062,0.34375,0.7285156,0.34375,1.2460938v4.4335938
	c0,0.3847656,0.0234375,0.7578125,0.0673828,1.1035156c0.0439453,0.3574219,0.1201172,0.6210938,0.2304688,0.796875h-2.3964844
	c-0.0439453-0.1367188-0.0791016-0.2714844-0.1074219-0.4082031c-0.0273438-0.1425781-0.0458984-0.2792969-0.0585938-0.4257812
	c-0.375,0.3867188-0.8125,0.6601562-1.3154297,0.8125c-0.5058594,0.15625-1.0205078,0.2324219-1.546875,0.2324219
	c-0.4042969,0-0.7822266-0.046875-1.1337891-0.1484375c-0.3515625-0.0996094-0.6572266-0.25-0.9208984-0.4628906
	c-0.2636719-0.2070312-0.46875-0.4726562-0.6152344-0.7929688c-0.1484375-0.3144531-0.2216797-0.6933594-0.2216797-1.1328125
	c0-0.4863281,0.0839844-0.8867188,0.2539062-1.1992188c0.1708984-0.3125,0.390625-0.5605469,0.6572266-0.75
	c0.2714844-0.1875,0.578125-0.3242188,0.921875-0.421875c0.3466797-0.0917969,0.6933594-0.1660156,1.0449219-0.2207031
	c0.3515625-0.0566406,0.6982422-0.0996094,1.0390625-0.1328125c0.3417969-0.03125,0.640625-0.0839844,0.9042969-0.1484375
	c0.2636719-0.0664062,0.4726562-0.1621094,0.6279297-0.2890625c0.1523438-0.1289062,0.2226562-0.3105469,0.2119141-0.5527344
	c0-0.2539062-0.0400391-0.4550781-0.1220703-0.6035156c-0.0791016-0.1484375-0.1904297-0.2636719-0.3242188-0.3476562
	c-0.1357422-0.078125-0.2929688-0.1347656-0.4726562-0.1640625c-0.1806641-0.0273438-0.3720703-0.0410156-0.5791016-0.0410156
	c-0.4550781,0-0.8164062,0.0996094-1.0751953,0.2988281c-0.2597656,0.1953125-0.4111328,0.5292969-0.4550781,0.9863281h-2.3583984
	C102.8652344,42.53125,103.0029297,42.0761719,103.2451172,41.7128906 M107.8515625,45.0078125
	c-0.1464844,0.0488281-0.3066406,0.0898438-0.4736328,0.1210938c-0.1708984,0.0371094-0.3476562,0.0605469-0.5322266,0.0839844
	c-0.1865234,0.0253906-0.3720703,0.0546875-0.5566406,0.0839844c-0.1748047,0.0332031-0.3466797,0.078125-0.5136719,0.1328125
	c-0.1708984,0.0527344-0.3173828,0.1308594-0.4443359,0.2226562c-0.1240234,0.0917969-0.2246094,0.2089844-0.3017578,0.3515625
	c-0.078125,0.1445312-0.1142578,0.3242188-0.1142578,0.5449219c0,0.2128906,0.0361328,0.3886719,0.1142578,0.5273438
	c0.0771484,0.1445312,0.1796875,0.2597656,0.3115234,0.3378906c0.1308594,0.0839844,0.28125,0.1425781,0.4560547,0.1757812
	c0.1757812,0.03125,0.3554688,0.0507812,0.5410156,0.0507812c0.4580078,0,0.8144531-0.0800781,1.0644531-0.2324219
	c0.25-0.1542969,0.4345703-0.3359375,0.5566406-0.5527344c0.1201172-0.2109375,0.1933594-0.4296875,0.2197266-0.6503906
	c0.0283203-0.21875,0.0400391-0.3945312,0.0400391-0.5273438v-0.875
	C108.1230469,44.890625,107.9980469,44.9550781,107.8515625,45.0078125"/>
<path fill="#FFFFFF" d="M113.3876953,40.4570312v1.5878906h0.0361328c0.1113281-0.2636719,0.2636719-0.5078125,0.4492188-0.7324219
	c0.1865234-0.2285156,0.4023438-0.4199219,0.6435547-0.5800781c0.2421875-0.1582031,0.4990234-0.2792969,0.7753906-0.3671875
	c0.2753906-0.0898438,0.5625-0.1347656,0.859375-0.1347656c0.1523438,0,0.3232422,0.0292969,0.5117188,0.0859375v2.171875
	c-0.1113281-0.0234375-0.2431641-0.0410156-0.3955078-0.0585938c-0.1552734-0.015625-0.3046875-0.0253906-0.4472656-0.0253906
	c-0.4287109,0-0.7919922,0.0722656-1.0888672,0.2167969c-0.296875,0.1425781-0.5371094,0.3359375-0.7167969,0.5859375
	c-0.1816406,0.2460938-0.3105469,0.5371094-0.3876953,0.8632812c-0.078125,0.3339844-0.1162109,0.6894531-0.1162109,1.0722656
	v3.8457031h-2.3574219v-8.53125H113.3876953z"/>
<polygon fill="#FFFFFF" points="117.4726562,43.4570312 120.4726562,43.4570312 120.4726562,40.4433594 122.9980469,40.4433594 
	122.9980469,43.4570312 126.0146484,43.4570312 126.0146484,45.9902344 122.9980469,45.9902344 122.9980469,48.9882812 
	120.4726562,48.9882812 120.4726562,45.9902344 117.4726562,45.9902344 "/>
</svg>
