<svg version="1.1" xmlns="http://www.w3.org/2000/svg" x="0" y="0" width="300" height="200"><g id="Layer_1"><g id="query"><text transform="translate(276.165 12.5)" id="tspan3023"><tspan x="-3.665" y="6.012" font-family="Helvetica-Bold" font-size="12" fill="#FFF">?</tspan></text><path d="M263 1l9 7-3.168 1.76 3.031 6.615a1.5 1.5 0 1 1-2.727 1.25l-2.935-6.404L263 13V1z" fill="#FFF"/></g><g id="add-note-grey" fill="#CCC"><path d="M242 31v-7l1-1h10l1 1v7l-1 1h-3l-2 3-2-3h-3z" id="path3386"/><path d="M257 33v2h2v2h-2v2h-2v-2h-2v-2h2v-2h2z"/></g><g id="add-note" fill="#FFF"><path d="M257 12v2h2v2h-2v2h-2v-2h-2v-2h2v-2h2z"/><path d="M242 11V4l1-1h10l1 1v7l-1 1h-3l-2 3-2-3h-3z" id="path11741"/></g><g id="check-green"><path d="M224 28h2l3 3 4.773-6H236v2l-5 6-1 1h-2l-1-1-3-3z" fill="#70CD8F" id="path3361-4"/></g><g id="check"><path d="M224 8h2l3 3 4.773-6H236v2l-5 6-1 1h-2l-1-1-3-3z" fill="#222" id="path10883"/></g><g id="close-grey"><path d="M205.938 25.156l-1 1v1l3 3-3 3v1l1 1h1l3-3 3 3h1l1-1v-1l-3-3 3-3v-1l-1-1h-1l-3 3-3-3h-1z" fill="#999" id="path3059"/></g><g id="close"><path d="M206 5l-1 1v1l3 3-3 3v1l1 1h1l3-3 3 3h1l1-1v-1l-3-3 3-3V6l-1-1h-1l-3 3-3-3h-1z" fill="#CCC" id="path10879"/></g><g id="link"><path d="M185 6l-2 2v4l2 2h2l-2-2V8h5v3h2V8l-2-2h-5zm7 0l2 2v4h-5V9h-2v3l2 2h5l2-2V8l-2-2h-2z" fill="#00F" id="path4118"/></g><g id="clipboard"><path d="M170 1l-1 1v1h-1l-1 1v2h7V4l-1-1h-1V2l-1-1h-1zm-5 3l-1 1v11l1 1h11l1-1V5l-1-1h-1v11h-9V4h-1zm3 4v1h5V8h-5zm0 2v1h5v-1h-5zm0 2v1h3v-1h-3z" fill="#FFF" id="path6924"/></g><g id="export"><path d="M155 2l-1 1v2h-2c-6 0-6 7-6 7s2-4 6-4h2v2l1 1 4-4.5-4-4.5zm-13 4l-1 1v9l1 1h10l1-1v-6h-1c-.32 0-.66.073-1 .188V15h-5.562a2.013 2.013 0 0 1-.907 0H143v-1.625a1.985 1.985 0 0 1 0-.625V8h1.531a10.65 10.65 0 0 1 1.344-2H142z" fill="#FFF" id="path6920"/></g><g id="info"><path d="M129 3l-1 1v2l1 1h2l1-1V4l-1-1zm0 6l-1 1v6l1 1h2l1-1v-6l-1-1z" fill="#FFF" id="path6912"/></g><g id="layers"><path d="M109.5 3L103 6v1l6.5 3h1l6.5-3V6l-6.5-3h-1zm-5.406 6.5L103 10v1l6.5 3h1l6.5-3v-1l-1.094-.5L110.5 12h-1l-5.406-2.5zm0 4L103 14v1l6.5 3h1l6.5-3v-1l-1.094-.5L110.5 16h-1l-5.406-2.5z" fill="#FFF" id="path6922"/></g><g id="locate-green"><path d="M84 30v-2l10-4h2v2l-4 10h-2v-6z" fill="#70CD8F" id="path6918-2"/></g><g id="locate"><path d="M84 10V8l10-4h2v2l-4 10h-2v-6z" fill="#FFF" id="path6918"/></g><g id="minus"><path d="M65 8h11l1 1v1l-1 1H65l-1-1V9z" fill="#FFF" id="path6916"/></g><g id="plus"><path d="M57 9l-1-1h-4V4l-1-1h-1l-1 1v4h-4l-1 1v1l1 1h4v4l1 1h1l1-1v-4h4l1-1V9z" fill="#FFF" id="path6914"/></g><g id="heart"><path d="M24 8c0-1.828 1-4 3.75-4 1.828 0 2.75 2 2.75 2s.922-2 2.75-2C36 4 37 6.172 37 8c0 5-6.5 8-6.5 8S24 13 24 8z" fill="#000" id="path3843"/></g><g id="search"><path d="M11.5 3a5.5 5.5 0 1 1 0 11 5.439 5.439 0 0 1-2.75-.75L5 17H4l-1-1v-1l3.75-3.75A5.439 5.439 0 0 1 6 8.5 5.5 5.5 0 0 1 11.5 3zm.5 2h-1L9 6 8 8v1l1 2 2 1h1l2-1 1-2V8l-1-2-2-1z" fill="#999" id="path10739"/></g></g></svg>