<?xml version="1.0" encoding="UTF-8"?>
<svg width="16px" height="21px" viewBox="0 0 16 21" version="1.1" xmlns="http://www.w3.org/2000/svg" xmlns:xlink="http://www.w3.org/1999/xlink">
    <!-- Generator: Sketch 41.2 (35397) - http://www.bohemiancoding.com/sketch -->
    <title>icon-strava</title>
    <desc>Created with Sketch.</desc>
    <defs></defs>
    <g id="Symbols" stroke="none" stroke-width="1" fill="none" fill-rule="evenodd">
        <g id="icon-assets" transform="translate(-108.000000, -55.000000)" fill="#000">
            <g id="Group-6" transform="translate(1.000000, 0.000000)">
                <path d="M115.923788,66.761665 L119.481572,66.761665 C117.481908,62.8460341 115.501431,58.9680274 113.506678,55.0620106 C111.528864,58.9832602 109.568905,62.8689249 107.598,66.7766065 C107.680782,66.7766065 107.730517,66.7766481 107.780211,66.7765649 C108.855417,66.774692 109.930622,66.771196 111.005828,66.7734434 C111.112375,66.7736931 111.166772,66.7427696 111.215425,66.6457123 C111.963832,65.1521447 112.716776,63.6609078 113.46897,62.1692964 C113.484577,62.1382064 113.503348,62.1086563 113.527071,62.0672447 C113.553708,62.1181457 113.573228,62.1546878 113.592123,62.191563 C114.104088,63.1914783 114.616552,64.1912271 115.12781,65.1916419 C115.395633,65.7158015 115.661292,66.2410848 115.927867,66.765827 L115.923788,66.761665 C115.923788,66.761665 115.927867,66.765827 115.927909,66.7658686 L113.27061,66.7658686 C114.753898,69.6687654 116.225157,72.5479388 117.711025,75.4557051 C119.183242,72.5361604 120.636979,69.6531163 122.098,66.7554221 C122.043978,66.7495953 122.012346,66.7432275 121.980674,66.7432691 C121.185902,66.744809 120.391214,66.7483467 119.596443,66.7474727 C119.499011,66.7473478 119.448817,66.7829744 119.405325,66.8701262 C118.86177,67.9582754 118.314096,69.0443853 117.767128,70.1308282 C117.748067,70.1687854 117.725634,70.2050779 117.698248,70.2539811 C117.676689,70.218313 117.664827,70.2012489 117.655463,70.1830194 C117.088185,69.073977 116.521074,67.964893 115.954712,66.8553928 C115.939978,66.826467 115.933943,66.7930047 115.923788,66.761665 Z" id="icon-strava"></path>
            </g>
        </g>
    </g>
</svg>